<?xml version="1.0" encoding="UTF-8" standalone="no"?>
<svg
   xmlns:dc="http://purl.org/dc/elements/1.1/"
   xmlns:cc="http://creativecommons.org/ns#"
   xmlns:rdf="http://www.w3.org/1999/02/22-rdf-syntax-ns#"
   xmlns:svg="http://www.w3.org/2000/svg"
   xmlns="http://www.w3.org/2000/svg"
   xmlns:sodipodi="http://sodipodi.sourceforge.net/DTD/sodipodi-0.dtd"
   xmlns:inkscape="http://www.inkscape.org/namespaces/inkscape"
   version="1.1"
   id="svg2"
   xml:space="preserve"
   width="1129.4399"
   height="645.74664"
   viewBox="0 0 1129.4399 645.74664"
   sodipodi:docname="Textura_FundoAzul_Numih.eps"><metadata
     id="metadata8"><rdf:RDF><cc:Work
         rdf:about=""><dc:format>image/svg+xml</dc:format><dc:type
           rdf:resource="http://purl.org/dc/dcmitype/StillImage" /></cc:Work></rdf:RDF></metadata><defs
     id="defs6" /><sodipodi:namedview
     pagecolor="#ffffff"
     bordercolor="#666666"
     borderopacity="1"
     objecttolerance="10"
     gridtolerance="10"
     guidetolerance="10"
     inkscape:pageopacity="0"
     inkscape:pageshadow="2"
     inkscape:window-width="640"
     inkscape:window-height="480"
     id="namedview4" /><g
     id="g10"
     inkscape:groupmode="layer"
     inkscape:label="ink_ext_XXXXXX"
     transform="matrix(1.3333333,0,0,-1.3333333,0,645.74667)"><g
       id="g12"
       transform="scale(0.1)"><path
         d="M 8470.78,0 H 0 V 4843.12 H 8470.78 V 0"
         style="fill:#1c2a4c;fill-opacity:1;fill-rule:nonzero;stroke:none"
         id="path14" /><path
         d="m 526.398,4200.9 h -9.902 v 179.32 c 0,59.46 -48.379,107.83 -107.84,107.83 -59.465,0 -107.832,-48.37 -107.832,-107.83 v -175.99 h -9.902 v 175.99 c 0,64.92 52.812,117.73 117.734,117.73 64.922,0 117.742,-52.81 117.742,-117.73 V 4200.9"
         style="fill:#3d5ab1;fill-opacity:1;fill-rule:nonzero;stroke:none"
         id="path16" /><path
         d="m 408.656,3908.1 c -64.922,0 -117.734,52.81 -117.734,117.73 v 179.31 h 9.902 v -179.31 c 0,-59.46 48.367,-107.83 107.832,-107.83 59.461,0 107.84,48.37 107.84,107.83 v 175.99 h 9.902 v -175.99 c 0,-64.92 -52.82,-117.73 -117.742,-117.73"
         style="fill:#3d5ab1;fill-opacity:1;fill-rule:nonzero;stroke:none"
         id="path18" /><path
         d="m 1619.91,4200.9 h -9.9 v 179.32 c 0,59.46 -48.37,107.83 -107.83,107.83 -59.46,0 -107.83,-48.37 -107.83,-107.83 v -175.99 h -9.9 v 175.99 c 0,64.92 52.81,117.73 117.73,117.73 64.92,0 117.73,-52.81 117.73,-117.73 V 4200.9"
         style="fill:#ffffff;fill-opacity:1;fill-rule:nonzero;stroke:none"
         id="path20" /><path
         d="m 1502.18,3908.1 c -64.92,0 -117.73,52.81 -117.73,117.73 v 179.31 h 9.9 v -179.31 c 0,-59.46 48.37,-107.83 107.83,-107.83 59.46,0 107.83,48.37 107.83,107.83 v 175.99 h 9.9 v -175.99 c 0,-64.92 -52.81,-117.73 -117.73,-117.73"
         style="fill:#ffffff;fill-opacity:1;fill-rule:nonzero;stroke:none"
         id="path22" /><path
         d="m 1984.43,4200.9 h -9.91 v 179.32 c 0,59.46 -48.36,107.83 -107.83,107.83 -59.46,0 -107.84,-48.37 -107.84,-107.83 v -175.99 h -9.9 v 175.99 c 0,64.92 52.82,117.73 117.74,117.73 64.92,0 117.74,-52.81 117.74,-117.73 V 4200.9"
         style="fill:#f57965;fill-opacity:1;fill-rule:nonzero;stroke:none"
         id="path24" /><path
         d="m 1866.69,3908.1 c -64.92,0 -117.74,52.81 -117.74,117.73 v 179.31 h 9.9 v -179.31 c 0,-59.46 48.38,-107.83 107.84,-107.83 59.47,0 107.83,48.37 107.83,107.83 v 175.99 h 9.91 v -175.99 c 0,-64.92 -52.82,-117.73 -117.74,-117.73"
         style="fill:#f57965;fill-opacity:1;fill-rule:nonzero;stroke:none"
         id="path26" /><path
         d="m 1984.43,3486.06 h -9.91 v 179.31 c 0,59.47 -48.36,107.84 -107.83,107.84 -59.46,0 -107.84,-48.37 -107.84,-107.84 v -175.98 h -9.9 v 175.98 c 0,64.93 52.82,117.74 117.74,117.74 64.92,0 117.74,-52.81 117.74,-117.74 v -179.31"
         style="fill:#3d5ab1;fill-opacity:1;fill-rule:nonzero;stroke:none"
         id="path28" /><path
         d="m 1866.69,3193.25 c -64.92,0 -117.74,52.82 -117.74,117.74 v 179.31 h 9.9 v -179.31 c 0,-59.46 48.38,-107.83 107.84,-107.83 59.47,0 107.83,48.37 107.83,107.83 v 175.98 h 9.91 v -175.98 c 0,-64.92 -52.82,-117.74 -117.74,-117.74"
         style="fill:#3d5ab1;fill-opacity:1;fill-rule:nonzero;stroke:none"
         id="path30" /><path
         d="m 1984.43,2771.21 h -9.91 v 179.32 c 0,59.46 -48.36,107.83 -107.83,107.83 -59.46,0 -107.84,-48.37 -107.84,-107.83 v -175.99 h -9.9 v 175.99 c 0,64.92 52.82,117.73 117.74,117.73 64.92,0 117.74,-52.81 117.74,-117.73 v -179.32"
         style="fill:#ffffff;fill-opacity:1;fill-rule:nonzero;stroke:none"
         id="path32" /><path
         d="m 1866.69,2478.41 c -64.92,0 -117.74,52.81 -117.74,117.73 v 179.31 h 9.9 v -179.31 c 0,-59.46 48.38,-107.83 107.84,-107.83 59.47,0 107.83,48.37 107.83,107.83 v 175.99 h 9.91 v -175.99 c 0,-64.92 -52.82,-117.73 -117.74,-117.73"
         style="fill:#ffffff;fill-opacity:1;fill-rule:nonzero;stroke:none"
         id="path34" /><path
         d="m 1255.41,2771.21 h -9.9 v 179.32 c 0,59.46 -48.37,107.83 -107.83,107.83 -59.46,0 -107.84,-48.37 -107.84,-107.83 v -175.99 h -9.91 v 175.99 c 0,64.92 52.83,117.73 117.75,117.73 64.92,0 117.73,-52.81 117.73,-117.73 v -179.32"
         style="fill:#ffffff;fill-opacity:1;fill-rule:nonzero;stroke:none"
         id="path36" /><path
         d="m 1137.68,2478.41 c -64.92,0 -117.75,52.81 -117.75,117.73 v 179.31 h 9.91 v -179.31 c 0,-59.46 48.38,-107.83 107.84,-107.83 59.46,0 107.83,48.37 107.83,107.83 v 175.99 h 9.9 v -175.99 c 0,-64.92 -52.81,-117.73 -117.73,-117.73"
         style="fill:#ffffff;fill-opacity:1;fill-rule:nonzero;stroke:none"
         id="path38" /><path
         d="m 526.398,2771.21 h -9.902 v 179.32 c 0,59.46 -48.379,107.83 -107.84,107.83 -59.465,0 -107.832,-48.37 -107.832,-107.83 v -175.99 h -9.902 v 175.99 c 0,64.92 52.812,117.73 117.734,117.73 64.922,0 117.742,-52.81 117.742,-117.73 v -179.32"
         style="fill:#ffffff;fill-opacity:1;fill-rule:nonzero;stroke:none"
         id="path40" /><path
         d="m 408.656,2478.41 c -64.922,0 -117.734,52.81 -117.734,117.73 v 179.31 h 9.902 v -179.31 c 0,-59.46 48.367,-107.83 107.832,-107.83 59.461,0 107.84,48.37 107.84,107.83 v 175.99 h 9.902 v -175.99 c 0,-64.92 -52.82,-117.73 -117.742,-117.73"
         style="fill:#ffffff;fill-opacity:1;fill-rule:nonzero;stroke:none"
         id="path42" /><path
         d="m 2348.94,3486.06 h -9.9 v 179.31 c 0,59.47 -48.38,107.84 -107.85,107.84 -59.46,0 -107.83,-48.37 -107.83,-107.84 v -175.98 h -9.9 v 175.98 c 0,64.93 52.81,117.74 117.73,117.74 64.93,0 117.75,-52.81 117.75,-117.74 v -179.31"
         style="fill:#ffffff;fill-opacity:1;fill-rule:nonzero;stroke:none"
         id="path44" /><path
         d="m 2231.19,3193.25 c -64.92,0 -117.73,52.82 -117.73,117.74 v 179.31 h 9.9 v -179.31 c 0,-59.46 48.37,-107.83 107.83,-107.83 59.47,0 107.85,48.37 107.85,107.83 v 175.98 h 9.9 v -175.98 c 0,-64.92 -52.82,-117.74 -117.75,-117.74"
         style="fill:#ffffff;fill-opacity:1;fill-rule:nonzero;stroke:none"
         id="path46" /><path
         d="m 2348.94,4200.9 h -9.9 v 179.32 c 0,59.46 -48.38,107.83 -107.85,107.83 -59.46,0 -107.83,-48.37 -107.83,-107.83 v -175.99 h -9.9 v 175.99 c 0,64.92 52.81,117.73 117.73,117.73 64.93,0 117.75,-52.81 117.75,-117.73 V 4200.9"
         style="fill:#3d5ab1;fill-opacity:1;fill-rule:nonzero;stroke:none"
         id="path48" /><path
         d="m 2231.19,3908.1 c -64.92,0 -117.73,52.81 -117.73,117.73 v 179.31 h 9.9 v -179.31 c 0,-59.46 48.37,-107.83 107.83,-107.83 59.47,0 107.85,48.37 107.85,107.83 v 175.99 h 9.9 v -175.99 c 0,-64.92 -52.82,-117.73 -117.75,-117.73"
         style="fill:#3d5ab1;fill-opacity:1;fill-rule:nonzero;stroke:none"
         id="path50" /><path
         d="M 890.902,4230.07 H 881 v 150.15 c 0,59.46 -48.371,107.83 -107.832,107.83 -59.465,0 -107.832,-48.37 -107.832,-107.83 v -146.83 h -9.902 v 146.83 c 0,64.92 52.812,117.73 117.734,117.73 64.922,0 117.734,-52.81 117.734,-117.73 v -150.15"
         style="fill:#ffffff;fill-opacity:1;fill-rule:nonzero;stroke:none"
         id="path52" /><path
         d="m 773.168,3908.1 c -64.922,0 -117.734,52.81 -117.734,117.73 v 150.15 h 9.902 v -150.15 c 0,-59.46 48.367,-107.83 107.832,-107.83 59.461,0 107.832,48.37 107.832,107.83 v 146.82 h 9.902 v -146.82 c 0,-64.92 -52.812,-117.73 -117.734,-117.73"
         style="fill:#ffffff;fill-opacity:1;fill-rule:nonzero;stroke:none"
         id="path54" /><path
         d="m 526.398,3515.23 h -9.902 v 150.14 c 0,59.47 -48.379,107.84 -107.84,107.84 -59.465,0 -107.832,-48.37 -107.832,-107.84 v -146.82 h -9.902 v 146.82 c 0,64.93 52.812,117.74 117.734,117.74 64.922,0 117.742,-52.81 117.742,-117.74 v -150.14"
         style="fill:#f57965;fill-opacity:1;fill-rule:nonzero;stroke:none"
         id="path56" /><path
         d="m 408.656,3193.25 c -64.922,0 -117.734,52.82 -117.734,117.74 v 150.14 h 9.902 v -150.14 c 0,-59.46 48.367,-107.83 107.832,-107.83 59.461,0 107.84,48.37 107.84,107.83 v 146.81 h 9.902 v -146.81 c 0,-64.92 -52.82,-117.74 -117.742,-117.74"
         style="fill:#f57965;fill-opacity:1;fill-rule:nonzero;stroke:none"
         id="path58" /><path
         d="M 890.902,3515.23 H 881 v 150.14 c 0,59.47 -48.371,107.84 -107.832,107.84 -59.465,0 -107.832,-48.37 -107.832,-107.84 v -146.82 h -9.902 v 146.82 c 0,64.93 52.812,117.74 117.734,117.74 64.922,0 117.734,-52.81 117.734,-117.74 v -150.14"
         style="fill:#ffffff;fill-opacity:1;fill-rule:nonzero;stroke:none"
         id="path60" /><path
         d="m 773.168,3193.25 c -64.922,0 -117.734,52.82 -117.734,117.74 v 150.14 h 9.902 v -150.14 c 0,-59.46 48.367,-107.83 107.832,-107.83 59.461,0 107.832,48.37 107.832,107.83 v 146.81 h 9.902 v -146.81 c 0,-64.92 -52.812,-117.74 -117.734,-117.74"
         style="fill:#ffffff;fill-opacity:1;fill-rule:nonzero;stroke:none"
         id="path62" /><path
         d="M 890.902,2802.5 H 881 v 150.15 c 0,59.46 -48.371,107.83 -107.832,107.83 -59.465,0 -107.832,-48.37 -107.832,-107.83 v -146.83 h -9.902 v 146.83 c 0,64.92 52.812,117.73 117.734,117.73 64.922,0 117.734,-52.81 117.734,-117.73 V 2802.5"
         style="fill:#3d5ab1;fill-opacity:1;fill-rule:nonzero;stroke:none"
         id="path64" /><path
         d="m 773.168,2480.53 c -64.922,0 -117.734,52.81 -117.734,117.73 v 150.15 h 9.902 v -150.15 c 0,-59.46 48.367,-107.83 107.832,-107.83 59.461,0 107.832,48.37 107.832,107.83 v 146.83 h 9.902 v -146.83 c 0,-64.92 -52.812,-117.73 -117.734,-117.73"
         style="fill:#3d5ab1;fill-opacity:1;fill-rule:nonzero;stroke:none"
         id="path66" /><path
         d="m 1255.41,3515.23 h -9.9 v 150.14 c 0,59.47 -48.37,107.84 -107.83,107.84 -59.46,0 -107.84,-48.37 -107.84,-107.84 v -146.82 h -9.91 v 146.82 c 0,64.93 52.83,117.74 117.75,117.74 64.92,0 117.73,-52.81 117.73,-117.74 v -150.14"
         style="fill:#3d5ab1;fill-opacity:1;fill-rule:nonzero;stroke:none"
         id="path68" /><path
         d="m 1137.68,3193.25 c -64.92,0 -117.75,52.82 -117.75,117.74 v 150.14 h 9.91 v -150.14 c 0,-59.46 48.38,-107.83 107.84,-107.83 59.46,0 107.83,48.37 107.83,107.83 v 146.81 h 9.9 v -146.81 c 0,-64.92 -52.81,-117.74 -117.73,-117.74"
         style="fill:#3d5ab1;fill-opacity:1;fill-rule:nonzero;stroke:none"
         id="path70" /><path
         d="m 1619.91,3515.23 h -9.9 v 150.14 c 0,59.47 -48.37,107.84 -107.83,107.84 -59.46,0 -107.83,-48.37 -107.83,-107.84 v -146.82 h -9.9 v 146.82 c 0,64.93 52.81,117.74 117.73,117.74 64.92,0 117.73,-52.81 117.73,-117.74 v -150.14"
         style="fill:#f57965;fill-opacity:1;fill-rule:nonzero;stroke:none"
         id="path72" /><path
         d="m 1502.18,3193.25 c -64.92,0 -117.73,52.82 -117.73,117.74 v 150.14 h 9.9 v -150.14 c 0,-59.46 48.37,-107.83 107.83,-107.83 59.46,0 107.83,48.37 107.83,107.83 v 146.81 h 9.9 v -146.81 c 0,-64.92 -52.81,-117.74 -117.73,-117.74"
         style="fill:#f57965;fill-opacity:1;fill-rule:nonzero;stroke:none"
         id="path74" /><path
         d="m 2713.44,3515.23 h -9.9 v 150.14 c 0,59.47 -48.37,107.84 -107.83,107.84 -59.47,0 -107.84,-48.37 -107.84,-107.84 v -146.82 h -9.9 v 146.82 c 0,64.93 52.81,117.74 117.74,117.74 64.92,0 117.73,-52.81 117.73,-117.74 v -150.14"
         style="fill:#ffffff;fill-opacity:1;fill-rule:nonzero;stroke:none"
         id="path76" /><path
         d="m 2595.71,3193.25 c -64.93,0 -117.74,52.82 -117.74,117.74 v 150.14 h 9.9 v -150.14 c 0,-59.46 48.37,-107.83 107.84,-107.83 59.46,0 107.83,48.37 107.83,107.83 v 146.81 h 9.9 v -146.81 c 0,-64.92 -52.81,-117.74 -117.73,-117.74"
         style="fill:#ffffff;fill-opacity:1;fill-rule:nonzero;stroke:none"
         id="path78" /><path
         d="m 1255.41,4230.07 h -9.9 v 150.15 c 0,59.46 -48.37,107.83 -107.83,107.83 -59.46,0 -107.84,-48.37 -107.84,-107.83 v -146.83 h -9.91 v 146.83 c 0,64.92 52.83,117.73 117.75,117.73 64.92,0 117.73,-52.81 117.73,-117.73 v -150.15"
         style="fill:#ffffff;fill-opacity:1;fill-rule:nonzero;stroke:none"
         id="path80" /><path
         d="m 1137.68,3908.1 c -64.92,0 -117.75,52.81 -117.75,117.73 v 150.15 h 9.91 v -150.15 c 0,-59.46 48.38,-107.83 107.84,-107.83 59.46,0 107.83,48.37 107.83,107.83 v 146.82 h 9.9 v -146.82 c 0,-64.92 -52.81,-117.73 -117.73,-117.73"
         style="fill:#ffffff;fill-opacity:1;fill-rule:nonzero;stroke:none"
         id="path82" /><path
         d="m 2713.44,4230.07 h -9.9 v 150.15 c 0,59.46 -48.37,107.83 -107.83,107.83 -59.47,0 -107.84,-48.37 -107.84,-107.83 v -146.83 h -9.9 v 146.83 c 0,64.92 52.81,117.73 117.74,117.73 64.92,0 117.73,-52.81 117.73,-117.73 v -150.15"
         style="fill:#ffffff;fill-opacity:1;fill-rule:nonzero;stroke:none"
         id="path84" /><path
         d="m 2595.71,3908.1 c -64.93,0 -117.74,52.81 -117.74,117.73 v 150.15 h 9.9 v -150.15 c 0,-59.46 48.37,-107.83 107.84,-107.83 59.46,0 107.83,48.37 107.83,107.83 v 146.82 h 9.9 v -146.82 c 0,-64.92 -52.81,-117.73 -117.73,-117.73"
         style="fill:#ffffff;fill-opacity:1;fill-rule:nonzero;stroke:none"
         id="path86" /><path
         d="m 2713.44,2800.38 h -9.9 v 150.15 c 0,59.46 -48.37,107.83 -107.83,107.83 -59.47,0 -107.84,-48.37 -107.84,-107.83 V 2803.7 h -9.9 v 146.83 c 0,64.92 52.81,117.73 117.74,117.73 64.92,0 117.73,-52.81 117.73,-117.73 v -150.15"
         style="fill:#ffffff;fill-opacity:1;fill-rule:nonzero;stroke:none"
         id="path88" /><path
         d="m 2595.71,2478.41 c -64.93,0 -117.74,52.81 -117.74,117.73 v 150.15 h 9.9 v -150.15 c 0,-59.46 48.37,-107.83 107.84,-107.83 59.46,0 107.83,48.37 107.83,107.83 v 146.82 h 9.9 v -146.82 c 0,-64.92 -52.81,-117.73 -117.73,-117.73"
         style="fill:#ffffff;fill-opacity:1;fill-rule:nonzero;stroke:none"
         id="path90" /><path
         d="m 2348.94,2800.38 h -9.9 v 150.15 c 0,59.46 -48.38,107.83 -107.85,107.83 -59.46,0 -107.83,-48.37 -107.83,-107.83 V 2803.7 h -9.9 v 146.83 c 0,64.92 52.81,117.73 117.73,117.73 64.93,0 117.75,-52.81 117.75,-117.73 v -150.15"
         style="fill:#f57965;fill-opacity:1;fill-rule:nonzero;stroke:none"
         id="path92" /><path
         d="m 2231.19,2478.41 c -64.92,0 -117.73,52.81 -117.73,117.73 v 150.15 h 9.9 v -150.15 c 0,-59.46 48.37,-107.83 107.83,-107.83 59.47,0 107.85,48.37 107.85,107.83 v 146.82 h 9.9 v -146.82 c 0,-64.92 -52.82,-117.73 -117.75,-117.73"
         style="fill:#f57965;fill-opacity:1;fill-rule:nonzero;stroke:none"
         id="path94" /><path
         d="m 1641.84,2800.38 h -9.9 v 150.15 c 0,59.46 -48.37,107.83 -107.84,107.83 -59.46,0 -107.84,-48.37 -107.84,-107.83 V 2803.7 h -9.9 v 146.83 c 0,64.92 52.82,117.73 117.74,117.73 64.93,0 117.74,-52.81 117.74,-117.73 v -150.15"
         style="fill:#f57965;fill-opacity:1;fill-rule:nonzero;stroke:none"
         id="path96" /><path
         d="m 1524.1,2478.41 c -64.92,0 -117.73,52.81 -117.73,117.73 l -0.01,150.15 h 9.9 l 0.01,-150.15 c 0,-59.46 48.37,-107.83 107.83,-107.83 59.47,0 107.84,48.37 107.84,107.83 v 146.82 h 9.9 v -146.82 c 0,-64.92 -52.81,-117.73 -117.74,-117.73"
         style="fill:#f57965;fill-opacity:1;fill-rule:nonzero;stroke:none"
         id="path98" /><path
         d="m 3077.95,4200.9 h -9.9 v 179.32 c 0,59.46 -48.38,107.83 -107.84,107.83 -59.47,0 -107.83,-48.37 -107.83,-107.83 v -175.99 h -9.91 v 175.99 c 0,64.92 52.82,117.73 117.74,117.73 64.92,0 117.74,-52.81 117.74,-117.73 V 4200.9"
         style="fill:#3d5ab1;fill-opacity:1;fill-rule:nonzero;stroke:none"
         id="path100" /><path
         d="m 2960.21,3908.1 c -64.92,0 -117.74,52.81 -117.74,117.73 v 179.31 h 9.91 v -179.31 c 0,-59.46 48.36,-107.83 107.83,-107.83 59.46,0 107.84,48.37 107.84,107.83 v 175.99 h 9.9 v -175.99 c 0,-64.92 -52.82,-117.73 -117.74,-117.73"
         style="fill:#3d5ab1;fill-opacity:1;fill-rule:nonzero;stroke:none"
         id="path102" /><path
         d="m 4171.47,4200.9 h -9.9 v 179.32 c 0,59.46 -48.37,107.83 -107.84,107.83 -59.46,0 -107.83,-48.37 -107.83,-107.83 v -175.99 h -9.9 v 175.99 c 0,64.92 52.81,117.73 117.73,117.73 64.93,0 117.74,-52.81 117.74,-117.73 V 4200.9"
         style="fill:#ffffff;fill-opacity:1;fill-rule:nonzero;stroke:none"
         id="path104" /><path
         d="m 4053.73,3908.1 c -64.92,0 -117.73,52.81 -117.73,117.73 v 179.31 h 9.9 v -179.31 c 0,-59.46 48.37,-107.83 107.83,-107.83 59.47,0 107.84,48.37 107.84,107.83 v 175.99 h 9.9 v -175.99 c 0,-64.92 -52.81,-117.73 -117.74,-117.73"
         style="fill:#ffffff;fill-opacity:1;fill-rule:nonzero;stroke:none"
         id="path106" /><path
         d="m 4535.98,4200.9 h -9.9 v 179.32 c 0,59.46 -48.37,107.83 -107.84,107.83 -59.46,0 -107.83,-48.37 -107.83,-107.83 v -175.99 h -9.9 v 175.99 c 0,64.92 52.81,117.73 117.73,117.73 64.93,0 117.74,-52.81 117.74,-117.73 V 4200.9"
         style="fill:#f57965;fill-opacity:1;fill-rule:nonzero;stroke:none"
         id="path108" /><path
         d="m 4418.24,3908.1 c -64.92,0 -117.73,52.81 -117.73,117.73 v 179.31 h 9.9 v -179.31 c 0,-59.46 48.37,-107.83 107.83,-107.83 59.47,0 107.84,48.37 107.84,107.83 v 175.99 h 9.9 v -175.99 c 0,-64.92 -52.81,-117.73 -117.74,-117.73"
         style="fill:#f57965;fill-opacity:1;fill-rule:nonzero;stroke:none"
         id="path110" /><path
         d="m 4535.98,3486.06 h -9.9 v 179.31 c 0,59.47 -48.37,107.84 -107.84,107.84 -59.46,0 -107.83,-48.37 -107.83,-107.84 v -175.98 h -9.9 v 175.98 c 0,64.93 52.81,117.74 117.73,117.74 64.93,0 117.74,-52.81 117.74,-117.74 v -179.31"
         style="fill:#3d5ab1;fill-opacity:1;fill-rule:nonzero;stroke:none"
         id="path112" /><path
         d="m 4418.24,3193.25 c -64.92,0 -117.73,52.82 -117.73,117.74 v 179.31 h 9.9 v -179.31 c 0,-59.46 48.37,-107.83 107.83,-107.83 59.47,0 107.84,48.37 107.84,107.83 v 175.98 h 9.9 v -175.98 c 0,-64.92 -52.81,-117.74 -117.74,-117.74"
         style="fill:#3d5ab1;fill-opacity:1;fill-rule:nonzero;stroke:none"
         id="path114" /><path
         d="m 4535.98,2771.21 h -9.9 v 179.32 c 0,59.46 -48.37,107.83 -107.84,107.83 -59.46,0 -107.83,-48.37 -107.83,-107.83 v -175.99 h -9.9 v 175.99 c 0,64.92 52.81,117.73 117.73,117.73 64.93,0 117.74,-52.81 117.74,-117.73 v -179.32"
         style="fill:#ffffff;fill-opacity:1;fill-rule:nonzero;stroke:none"
         id="path116" /><path
         d="m 4418.24,2478.41 c -64.92,0 -117.73,52.81 -117.73,117.73 v 179.31 h 9.9 v -179.31 c 0,-59.46 48.37,-107.83 107.83,-107.83 59.47,0 107.84,48.37 107.84,107.83 v 175.99 h 9.9 v -175.99 c 0,-64.92 -52.81,-117.73 -117.74,-117.73"
         style="fill:#ffffff;fill-opacity:1;fill-rule:nonzero;stroke:none"
         id="path118" /><path
         d="m 3806.97,2771.21 h -9.91 v 179.32 c 0,59.46 -48.37,107.83 -107.83,107.83 -59.46,0 -107.84,-48.37 -107.84,-107.83 v -175.99 h -9.9 v 175.99 c 0,64.92 52.82,117.73 117.74,117.73 64.92,0 117.74,-52.81 117.74,-117.73 v -179.32"
         style="fill:#ffffff;fill-opacity:1;fill-rule:nonzero;stroke:none"
         id="path120" /><path
         d="m 3689.23,2478.41 c -64.92,0 -117.74,52.81 -117.74,117.73 v 179.31 h 9.9 v -179.31 c 0,-59.46 48.38,-107.83 107.84,-107.83 59.46,0 107.83,48.37 107.83,107.83 v 175.99 h 9.91 v -175.99 c 0,-64.92 -52.82,-117.73 -117.74,-117.73"
         style="fill:#ffffff;fill-opacity:1;fill-rule:nonzero;stroke:none"
         id="path122" /><path
         d="m 3077.95,2771.21 h -9.9 v 179.32 c 0,59.46 -48.38,107.83 -107.84,107.83 -59.47,0 -107.83,-48.37 -107.83,-107.83 v -175.99 h -9.91 v 175.99 c 0,64.92 52.82,117.73 117.74,117.73 64.92,0 117.74,-52.81 117.74,-117.73 v -179.32"
         style="fill:#ffffff;fill-opacity:1;fill-rule:nonzero;stroke:none"
         id="path124" /><path
         d="m 2960.21,2478.41 c -64.92,0 -117.74,52.81 -117.74,117.73 v 179.31 h 9.91 v -179.31 c 0,-59.46 48.36,-107.83 107.83,-107.83 59.46,0 107.84,48.37 107.84,107.83 v 175.99 h 9.9 v -175.99 c 0,-64.92 -52.82,-117.73 -117.74,-117.73"
         style="fill:#ffffff;fill-opacity:1;fill-rule:nonzero;stroke:none"
         id="path126" /><path
         d="m 4900.49,3486.06 h -9.9 v 179.31 c 0,59.47 -48.38,107.84 -107.84,107.84 -59.47,0 -107.84,-48.37 -107.84,-107.84 v -175.98 h -9.9 v 175.98 c 0,64.93 52.82,117.74 117.74,117.74 64.92,0 117.74,-52.81 117.74,-117.74 v -179.31"
         style="fill:#ffffff;fill-opacity:1;fill-rule:nonzero;stroke:none"
         id="path128" /><path
         d="m 4782.75,3193.25 c -64.92,0 -117.74,52.82 -117.74,117.74 v 179.31 h 9.9 v -179.31 c 0,-59.46 48.37,-107.83 107.84,-107.83 59.46,0 107.84,48.37 107.84,107.83 v 175.98 h 9.9 v -175.98 c 0,-64.92 -52.82,-117.74 -117.74,-117.74"
         style="fill:#ffffff;fill-opacity:1;fill-rule:nonzero;stroke:none"
         id="path130" /><path
         d="m 4900.49,4200.9 h -9.9 v 179.32 c 0,59.46 -48.38,107.83 -107.84,107.83 -59.47,0 -107.84,-48.37 -107.84,-107.83 v -175.99 h -9.9 v 175.99 c 0,64.92 52.82,117.73 117.74,117.73 64.92,0 117.74,-52.81 117.74,-117.73 V 4200.9"
         style="fill:#3d5ab1;fill-opacity:1;fill-rule:nonzero;stroke:none"
         id="path132" /><path
         d="m 4782.75,3908.1 c -64.92,0 -117.74,52.81 -117.74,117.73 v 179.31 h 9.9 v -179.31 c 0,-59.46 48.37,-107.83 107.84,-107.83 59.46,0 107.84,48.37 107.84,107.83 v 175.99 h 9.9 v -175.99 c 0,-64.92 -52.82,-117.73 -117.74,-117.73"
         style="fill:#3d5ab1;fill-opacity:1;fill-rule:nonzero;stroke:none"
         id="path134" /><path
         d="m 3442.45,4230.07 h -9.9 v 150.15 c 0,59.46 -48.37,107.83 -107.83,107.83 -59.46,0 -107.83,-48.37 -107.83,-107.83 v -146.83 h -9.9 v 146.83 c 0,64.92 52.81,117.73 117.73,117.73 64.92,0 117.73,-52.81 117.73,-117.73 v -150.15"
         style="fill:#ffffff;fill-opacity:1;fill-rule:nonzero;stroke:none"
         id="path136" /><path
         d="m 3324.72,3908.1 c -64.92,0 -117.73,52.81 -117.73,117.73 v 150.15 h 9.9 v -150.15 c 0,-59.46 48.37,-107.83 107.83,-107.83 59.46,0 107.83,48.37 107.83,107.83 v 146.82 h 9.9 v -146.82 c 0,-64.92 -52.81,-117.73 -117.73,-117.73"
         style="fill:#ffffff;fill-opacity:1;fill-rule:nonzero;stroke:none"
         id="path138" /><path
         d="m 3077.95,3515.23 h -9.9 v 150.14 c 0,59.47 -48.38,107.84 -107.84,107.84 -59.47,0 -107.83,-48.37 -107.83,-107.84 v -146.82 h -9.91 v 146.82 c 0,64.93 52.82,117.74 117.74,117.74 64.92,0 117.74,-52.81 117.74,-117.74 v -150.14"
         style="fill:#f57965;fill-opacity:1;fill-rule:nonzero;stroke:none"
         id="path140" /><path
         d="m 2960.21,3193.25 c -64.92,0 -117.74,52.82 -117.74,117.74 v 150.14 h 9.91 v -150.14 c 0,-59.46 48.36,-107.83 107.83,-107.83 59.46,0 107.84,48.37 107.84,107.83 v 146.81 h 9.9 v -146.81 c 0,-64.92 -52.82,-117.74 -117.74,-117.74"
         style="fill:#f57965;fill-opacity:1;fill-rule:nonzero;stroke:none"
         id="path142" /><path
         d="m 3442.45,3515.23 h -9.9 v 150.14 c 0,59.47 -48.37,107.84 -107.83,107.84 -59.46,0 -107.83,-48.37 -107.83,-107.84 v -146.82 h -9.9 v 146.82 c 0,64.93 52.81,117.74 117.73,117.74 64.92,0 117.73,-52.81 117.73,-117.74 v -150.14"
         style="fill:#ffffff;fill-opacity:1;fill-rule:nonzero;stroke:none"
         id="path144" /><path
         d="m 3324.72,3193.25 c -64.92,0 -117.73,52.82 -117.73,117.74 v 150.14 h 9.9 v -150.14 c 0,-59.46 48.37,-107.83 107.83,-107.83 59.46,0 107.83,48.37 107.83,107.83 v 146.81 h 9.9 v -146.81 c 0,-64.92 -52.81,-117.74 -117.73,-117.74"
         style="fill:#ffffff;fill-opacity:1;fill-rule:nonzero;stroke:none"
         id="path146" /><path
         d="m 3442.45,2802.5 h -9.9 v 150.15 c 0,59.46 -48.37,107.83 -107.83,107.83 -59.46,0 -107.83,-48.37 -107.83,-107.83 v -146.83 h -9.9 v 146.83 c 0,64.92 52.81,117.73 117.73,117.73 64.92,0 117.73,-52.81 117.73,-117.73 V 2802.5"
         style="fill:#3d5ab1;fill-opacity:1;fill-rule:nonzero;stroke:none"
         id="path148" /><path
         d="m 3324.72,2480.53 c -64.92,0 -117.73,52.81 -117.73,117.73 v 150.15 h 9.9 v -150.15 c 0,-59.46 48.37,-107.83 107.83,-107.83 59.46,0 107.83,48.37 107.83,107.83 v 146.83 h 9.9 v -146.83 c 0,-64.92 -52.81,-117.73 -117.73,-117.73"
         style="fill:#3d5ab1;fill-opacity:1;fill-rule:nonzero;stroke:none"
         id="path150" /><path
         d="m 3806.97,3515.23 h -9.91 v 150.14 c 0,59.47 -48.37,107.84 -107.83,107.84 -59.46,0 -107.84,-48.37 -107.84,-107.84 v -146.82 h -9.9 v 146.82 c 0,64.93 52.82,117.74 117.74,117.74 64.92,0 117.74,-52.81 117.74,-117.74 v -150.14"
         style="fill:#3d5ab1;fill-opacity:1;fill-rule:nonzero;stroke:none"
         id="path152" /><path
         d="m 3689.23,3193.25 c -64.92,0 -117.74,52.82 -117.74,117.74 v 150.14 h 9.9 v -150.14 c 0,-59.46 48.38,-107.83 107.84,-107.83 59.46,0 107.83,48.37 107.83,107.83 v 146.81 h 9.91 v -146.81 c 0,-64.92 -52.82,-117.74 -117.74,-117.74"
         style="fill:#3d5ab1;fill-opacity:1;fill-rule:nonzero;stroke:none"
         id="path154" /><path
         d="m 4171.47,3515.23 h -9.9 v 150.14 c 0,59.47 -48.37,107.84 -107.84,107.84 -59.46,0 -107.83,-48.37 -107.83,-107.84 v -146.82 h -9.9 v 146.82 c 0,64.93 52.81,117.74 117.73,117.74 64.93,0 117.74,-52.81 117.74,-117.74 v -150.14"
         style="fill:#f57965;fill-opacity:1;fill-rule:nonzero;stroke:none"
         id="path156" /><path
         d="m 4053.73,3193.25 c -64.92,0 -117.73,52.82 -117.73,117.74 v 150.14 h 9.9 v -150.14 c 0,-59.46 48.37,-107.83 107.83,-107.83 59.47,0 107.84,48.37 107.84,107.83 v 146.81 h 9.9 v -146.81 c 0,-64.92 -52.81,-117.74 -117.74,-117.74"
         style="fill:#f57965;fill-opacity:1;fill-rule:nonzero;stroke:none"
         id="path158" /><path
         d="m 5264.99,3515.23 h -9.9 v 150.14 c 0,59.47 -48.37,107.84 -107.83,107.84 -59.46,0 -107.83,-48.37 -107.83,-107.84 v -146.82 h -9.91 v 146.82 c 0,64.93 52.82,117.74 117.74,117.74 64.92,0 117.73,-52.81 117.73,-117.74 v -150.14"
         style="fill:#ffffff;fill-opacity:1;fill-rule:nonzero;stroke:none"
         id="path160" /><path
         d="m 5147.26,3193.25 c -64.92,0 -117.74,52.82 -117.74,117.74 v 150.14 h 9.91 v -150.14 c 0,-59.46 48.37,-107.83 107.83,-107.83 59.46,0 107.83,48.37 107.83,107.83 v 146.81 h 9.9 v -146.81 c 0,-64.92 -52.81,-117.74 -117.73,-117.74"
         style="fill:#ffffff;fill-opacity:1;fill-rule:nonzero;stroke:none"
         id="path162" /><path
         d="m 3806.97,4230.07 h -9.91 v 150.15 c 0,59.46 -48.37,107.83 -107.83,107.83 -59.46,0 -107.84,-48.37 -107.84,-107.83 v -146.83 h -9.9 v 146.83 c 0,64.92 52.82,117.73 117.74,117.73 64.92,0 117.74,-52.81 117.74,-117.73 v -150.15"
         style="fill:#ffffff;fill-opacity:1;fill-rule:nonzero;stroke:none"
         id="path164" /><path
         d="m 3689.23,3908.1 c -64.92,0 -117.74,52.81 -117.74,117.73 v 150.15 h 9.9 v -150.15 c 0,-59.46 48.38,-107.83 107.84,-107.83 59.46,0 107.83,48.37 107.83,107.83 v 146.82 h 9.91 v -146.82 c 0,-64.92 -52.82,-117.73 -117.74,-117.73"
         style="fill:#ffffff;fill-opacity:1;fill-rule:nonzero;stroke:none"
         id="path166" /><path
         d="m 5264.99,4230.07 h -9.9 v 150.15 c 0,59.46 -48.37,107.83 -107.83,107.83 -59.46,0 -107.83,-48.37 -107.83,-107.83 v -146.83 h -9.91 v 146.83 c 0,64.92 52.82,117.73 117.74,117.73 64.92,0 117.73,-52.81 117.73,-117.73 v -150.15"
         style="fill:#ffffff;fill-opacity:1;fill-rule:nonzero;stroke:none"
         id="path168" /><path
         d="m 5147.26,3908.1 c -64.92,0 -117.74,52.81 -117.74,117.73 v 150.15 h 9.91 v -150.15 c 0,-59.46 48.37,-107.83 107.83,-107.83 59.46,0 107.83,48.37 107.83,107.83 v 146.82 h 9.9 v -146.82 c 0,-64.92 -52.81,-117.73 -117.73,-117.73"
         style="fill:#ffffff;fill-opacity:1;fill-rule:nonzero;stroke:none"
         id="path170" /><path
         d="m 5264.99,2800.38 h -9.9 v 150.15 c 0,59.46 -48.37,107.83 -107.83,107.83 -59.46,0 -107.83,-48.37 -107.83,-107.83 V 2803.7 h -9.91 v 146.83 c 0,64.92 52.82,117.73 117.74,117.73 64.92,0 117.73,-52.81 117.73,-117.73 v -150.15"
         style="fill:#ffffff;fill-opacity:1;fill-rule:nonzero;stroke:none"
         id="path172" /><path
         d="m 5147.26,2478.41 c -64.92,0 -117.74,52.81 -117.74,117.73 v 150.15 h 9.91 v -150.15 c 0,-59.46 48.37,-107.83 107.83,-107.83 59.46,0 107.83,48.37 107.83,107.83 v 146.82 h 9.9 v -146.82 c 0,-64.92 -52.81,-117.73 -117.73,-117.73"
         style="fill:#ffffff;fill-opacity:1;fill-rule:nonzero;stroke:none"
         id="path174" /><path
         d="m 4900.49,2800.38 h -9.9 v 150.15 c 0,59.46 -48.38,107.83 -107.84,107.83 -59.47,0 -107.84,-48.37 -107.84,-107.83 V 2803.7 h -9.9 v 146.83 c 0,64.92 52.82,117.73 117.74,117.73 64.92,0 117.74,-52.81 117.74,-117.73 v -150.15"
         style="fill:#f57965;fill-opacity:1;fill-rule:nonzero;stroke:none"
         id="path176" /><path
         d="m 4782.75,2478.41 c -64.92,0 -117.74,52.81 -117.74,117.73 v 150.15 h 9.9 v -150.15 c 0,-59.46 48.37,-107.83 107.84,-107.83 59.46,0 107.84,48.37 107.84,107.83 v 146.82 h 9.9 v -146.82 c 0,-64.92 -52.82,-117.73 -117.74,-117.73"
         style="fill:#f57965;fill-opacity:1;fill-rule:nonzero;stroke:none"
         id="path178" /><path
         d="m 4193.39,2800.38 h -9.9 v 150.15 c 0,59.46 -48.37,107.83 -107.83,107.83 -59.47,0 -107.83,-48.37 -107.83,-107.83 V 2803.7 h -9.91 v 146.83 c 0,64.92 52.82,117.73 117.74,117.73 64.92,0 117.73,-52.81 117.73,-117.73 v -150.15"
         style="fill:#f57965;fill-opacity:1;fill-rule:nonzero;stroke:none"
         id="path180" /><path
         d="m 4075.66,2478.41 c -64.92,0 -117.74,52.81 -117.74,117.73 v 150.15 h 9.91 v -150.15 c 0,-59.46 48.36,-107.83 107.83,-107.83 59.46,0 107.83,48.37 107.83,107.83 v 146.82 h 9.9 v -146.82 c 0,-64.92 -52.81,-117.73 -117.73,-117.73"
         style="fill:#f57965;fill-opacity:1;fill-rule:nonzero;stroke:none"
         id="path182" /><path
         d="m 5629.51,4200.9 h -9.91 v 179.32 c 0,59.46 -48.37,107.83 -107.83,107.83 -59.46,0 -107.84,-48.37 -107.84,-107.83 v -175.99 h -9.9 v 175.99 c 0,64.92 52.82,117.73 117.74,117.73 64.92,0 117.74,-52.81 117.74,-117.73 V 4200.9"
         style="fill:#3d5ab1;fill-opacity:1;fill-rule:nonzero;stroke:none"
         id="path184" /><path
         d="m 5511.77,3908.1 c -64.92,0 -117.74,52.81 -117.74,117.73 v 179.31 h 9.9 v -179.31 c 0,-59.46 48.38,-107.83 107.84,-107.83 59.46,0 107.83,48.37 107.83,107.83 v 175.99 h 9.91 v -175.99 c 0,-64.92 -52.82,-117.73 -117.74,-117.73"
         style="fill:#3d5ab1;fill-opacity:1;fill-rule:nonzero;stroke:none"
         id="path186" /><path
         d="m 6723.03,4200.9 h -9.9 v 179.32 c 0,59.46 -48.38,107.83 -107.84,107.83 -59.47,0 -107.84,-48.37 -107.84,-107.83 v -175.99 h -9.9 v 175.99 c 0,64.92 52.81,117.73 117.74,117.73 64.92,0 117.74,-52.81 117.74,-117.73 V 4200.9"
         style="fill:#ffffff;fill-opacity:1;fill-rule:nonzero;stroke:none"
         id="path188" /><path
         d="m 6605.29,3908.1 c -64.93,0 -117.74,52.81 -117.74,117.73 v 179.31 h 9.9 v -179.31 c 0,-59.46 48.37,-107.83 107.84,-107.83 59.46,0 107.84,48.37 107.84,107.83 v 175.99 h 9.9 v -175.99 c 0,-64.92 -52.82,-117.73 -117.74,-117.73"
         style="fill:#ffffff;fill-opacity:1;fill-rule:nonzero;stroke:none"
         id="path190" /><path
         d="m 7087.53,4200.9 h -9.9 v 179.32 c 0,59.46 -48.37,107.83 -107.83,107.83 -59.46,0 -107.83,-48.37 -107.83,-107.83 v -175.99 h -9.91 v 175.99 c 0,64.92 52.82,117.73 117.74,117.73 64.92,0 117.73,-52.81 117.73,-117.73 V 4200.9"
         style="fill:#f57965;fill-opacity:1;fill-rule:nonzero;stroke:none"
         id="path192" /><path
         d="m 6969.8,3908.1 c -64.92,0 -117.74,52.81 -117.74,117.73 v 179.31 h 9.91 v -179.31 c 0,-59.46 48.37,-107.83 107.83,-107.83 59.46,0 107.83,48.37 107.83,107.83 v 175.99 h 9.9 v -175.99 c 0,-64.92 -52.81,-117.73 -117.73,-117.73"
         style="fill:#f57965;fill-opacity:1;fill-rule:nonzero;stroke:none"
         id="path194" /><path
         d="m 7087.53,3486.06 h -9.9 v 179.31 c 0,59.47 -48.37,107.84 -107.83,107.84 -59.46,0 -107.83,-48.37 -107.83,-107.84 v -175.98 h -9.91 v 175.98 c 0,64.93 52.82,117.74 117.74,117.74 64.92,0 117.73,-52.81 117.73,-117.74 v -179.31"
         style="fill:#3d5ab1;fill-opacity:1;fill-rule:nonzero;stroke:none"
         id="path196" /><path
         d="m 6969.8,3193.25 c -64.92,0 -117.74,52.82 -117.74,117.74 v 179.31 h 9.91 v -179.31 c 0,-59.46 48.37,-107.83 107.83,-107.83 59.46,0 107.83,48.37 107.83,107.83 v 175.98 h 9.9 v -175.98 c 0,-64.92 -52.81,-117.74 -117.73,-117.74"
         style="fill:#3d5ab1;fill-opacity:1;fill-rule:nonzero;stroke:none"
         id="path198" /><path
         d="m 7087.53,2771.21 h -9.9 v 179.32 c 0,59.46 -48.37,107.83 -107.83,107.83 -59.46,0 -107.83,-48.37 -107.83,-107.83 v -175.99 h -9.91 v 175.99 c 0,64.92 52.82,117.73 117.74,117.73 64.92,0 117.73,-52.81 117.73,-117.73 v -179.32"
         style="fill:#ffffff;fill-opacity:1;fill-rule:nonzero;stroke:none"
         id="path200" /><path
         d="m 6969.8,2478.41 c -64.92,0 -117.74,52.81 -117.74,117.73 v 179.31 h 9.91 v -179.31 c 0,-59.46 48.37,-107.83 107.83,-107.83 59.46,0 107.83,48.37 107.83,107.83 v 175.99 h 9.9 v -175.99 c 0,-64.92 -52.81,-117.73 -117.73,-117.73"
         style="fill:#ffffff;fill-opacity:1;fill-rule:nonzero;stroke:none"
         id="path202" /><path
         d="m 6358.52,2771.21 h -9.9 v 179.32 c 0,59.46 -48.37,107.83 -107.84,107.83 -59.46,0 -107.84,-48.37 -107.84,-107.83 v -175.99 h -9.9 v 175.99 c 0,64.92 52.82,117.73 117.74,117.73 64.93,0 117.74,-52.81 117.74,-117.73 v -179.32"
         style="fill:#ffffff;fill-opacity:1;fill-rule:nonzero;stroke:none"
         id="path204" /><path
         d="m 6240.78,2478.41 c -64.92,0 -117.73,52.81 -117.73,117.73 l -0.01,179.31 h 9.9 l 0.01,-179.31 c 0,-59.46 48.37,-107.83 107.83,-107.83 59.47,0 107.84,48.37 107.84,107.83 v 175.99 h 9.9 v -175.99 c 0,-64.92 -52.81,-117.73 -117.74,-117.73"
         style="fill:#ffffff;fill-opacity:1;fill-rule:nonzero;stroke:none"
         id="path206" /><path
         d="m 5629.51,2771.21 h -9.91 v 179.32 c 0,59.46 -48.37,107.83 -107.83,107.83 -59.46,0 -107.84,-48.37 -107.84,-107.83 v -175.99 h -9.9 v 175.99 c 0,64.92 52.82,117.73 117.74,117.73 64.92,0 117.74,-52.81 117.74,-117.73 v -179.32"
         style="fill:#ffffff;fill-opacity:1;fill-rule:nonzero;stroke:none"
         id="path208" /><path
         d="m 5511.77,2478.41 c -64.92,0 -117.74,52.81 -117.74,117.73 v 179.31 h 9.9 v -179.31 c 0,-59.46 48.38,-107.83 107.84,-107.83 59.46,0 107.83,48.37 107.83,107.83 v 175.99 h 9.91 v -175.99 c 0,-64.92 -52.82,-117.73 -117.74,-117.73"
         style="fill:#ffffff;fill-opacity:1;fill-rule:nonzero;stroke:none"
         id="path210" /><path
         d="m 7452.04,3486.06 h -9.9 v 179.31 c 0,59.47 -48.37,107.84 -107.83,107.84 -59.46,0 -107.84,-48.37 -107.84,-107.84 v -175.98 h -9.9 v 175.98 c 0,64.93 52.81,117.74 117.73,117.74 64.92,0 117.74,-52.81 117.74,-117.74 v -179.31"
         style="fill:#ffffff;fill-opacity:1;fill-rule:nonzero;stroke:none"
         id="path212" /><path
         d="m 7334.31,3193.25 c -64.92,0 -117.74,52.82 -117.74,117.74 v 179.31 h 9.9 v -179.31 c 0,-59.46 48.38,-107.83 107.84,-107.83 59.46,0 107.83,48.37 107.83,107.83 v 175.98 h 9.9 v -175.98 c 0,-64.92 -52.81,-117.74 -117.73,-117.74"
         style="fill:#ffffff;fill-opacity:1;fill-rule:nonzero;stroke:none"
         id="path214" /><path
         d="m 7452.04,4200.9 h -9.9 v 179.32 c 0,59.46 -48.37,107.83 -107.83,107.83 -59.46,0 -107.84,-48.37 -107.84,-107.83 v -175.99 h -9.9 v 175.99 c 0,64.92 52.81,117.73 117.73,117.73 64.92,0 117.74,-52.81 117.74,-117.73 V 4200.9"
         style="fill:#3d5ab1;fill-opacity:1;fill-rule:nonzero;stroke:none"
         id="path216" /><path
         d="m 7334.31,3908.1 c -64.92,0 -117.74,52.81 -117.74,117.73 v 179.31 h 9.9 v -179.31 c 0,-59.46 48.38,-107.83 107.84,-107.83 59.46,0 107.83,48.37 107.83,107.83 v 175.99 h 9.9 v -175.99 c 0,-64.92 -52.81,-117.73 -117.73,-117.73"
         style="fill:#3d5ab1;fill-opacity:1;fill-rule:nonzero;stroke:none"
         id="path218" /><path
         d="m 5994.01,4230.07 h -9.91 v 150.15 c 0,59.46 -48.36,107.83 -107.83,107.83 -59.46,0 -107.83,-48.37 -107.83,-107.83 v -146.83 h -9.9 v 146.83 c 0,64.92 52.81,117.73 117.73,117.73 64.92,0 117.74,-52.81 117.74,-117.73 v -150.15"
         style="fill:#ffffff;fill-opacity:1;fill-rule:nonzero;stroke:none"
         id="path220" /><path
         d="m 5876.27,3908.1 c -64.92,0 -117.73,52.81 -117.73,117.73 v 150.15 h 9.9 v -150.15 c 0,-59.46 48.37,-107.83 107.83,-107.83 59.47,0 107.83,48.37 107.83,107.83 v 146.82 h 9.91 v -146.82 c 0,-64.92 -52.82,-117.73 -117.74,-117.73"
         style="fill:#ffffff;fill-opacity:1;fill-rule:nonzero;stroke:none"
         id="path222" /><path
         d="m 5629.51,3515.23 h -9.91 v 150.14 c 0,59.47 -48.37,107.84 -107.83,107.84 -59.46,0 -107.84,-48.37 -107.84,-107.84 v -146.82 h -9.9 v 146.82 c 0,64.93 52.82,117.74 117.74,117.74 64.92,0 117.74,-52.81 117.74,-117.74 v -150.14"
         style="fill:#f57965;fill-opacity:1;fill-rule:nonzero;stroke:none"
         id="path224" /><path
         d="m 5511.77,3193.25 c -64.92,0 -117.74,52.82 -117.74,117.74 v 150.14 h 9.9 v -150.14 c 0,-59.46 48.38,-107.83 107.84,-107.83 59.46,0 107.83,48.37 107.83,107.83 v 146.81 h 9.91 v -146.81 c 0,-64.92 -52.82,-117.74 -117.74,-117.74"
         style="fill:#f57965;fill-opacity:1;fill-rule:nonzero;stroke:none"
         id="path226" /><path
         d="m 5994.01,3515.23 h -9.91 v 150.14 c 0,59.47 -48.36,107.84 -107.83,107.84 -59.46,0 -107.83,-48.37 -107.83,-107.84 v -146.82 h -9.9 v 146.82 c 0,64.93 52.81,117.74 117.73,117.74 64.92,0 117.74,-52.81 117.74,-117.74 v -150.14"
         style="fill:#ffffff;fill-opacity:1;fill-rule:nonzero;stroke:none"
         id="path228" /><path
         d="m 5876.27,3193.25 c -64.92,0 -117.73,52.82 -117.73,117.74 v 150.14 h 9.9 v -150.14 c 0,-59.46 48.37,-107.83 107.83,-107.83 59.47,0 107.83,48.37 107.83,107.83 v 146.81 h 9.91 v -146.81 c 0,-64.92 -52.82,-117.74 -117.74,-117.74"
         style="fill:#ffffff;fill-opacity:1;fill-rule:nonzero;stroke:none"
         id="path230" /><path
         d="m 5994.01,2802.5 h -9.91 v 150.15 c 0,59.46 -48.36,107.83 -107.83,107.83 -59.46,0 -107.83,-48.37 -107.83,-107.83 v -146.83 h -9.9 v 146.83 c 0,64.92 52.81,117.73 117.73,117.73 64.92,0 117.74,-52.81 117.74,-117.73 V 2802.5"
         style="fill:#3d5ab1;fill-opacity:1;fill-rule:nonzero;stroke:none"
         id="path232" /><path
         d="m 5876.27,2480.53 c -64.92,0 -117.73,52.81 -117.73,117.73 v 150.15 h 9.9 v -150.15 c 0,-59.46 48.37,-107.83 107.83,-107.83 59.47,0 107.83,48.37 107.83,107.83 v 146.83 h 9.91 v -146.83 c 0,-64.92 -52.82,-117.73 -117.74,-117.73"
         style="fill:#3d5ab1;fill-opacity:1;fill-rule:nonzero;stroke:none"
         id="path234" /><path
         d="m 6358.52,3515.23 h -9.9 v 150.14 c 0,59.47 -48.37,107.84 -107.84,107.84 -59.46,0 -107.84,-48.37 -107.84,-107.84 v -146.82 h -9.9 v 146.82 c 0,64.93 52.82,117.74 117.74,117.74 64.93,0 117.74,-52.81 117.74,-117.74 v -150.14"
         style="fill:#3d5ab1;fill-opacity:1;fill-rule:nonzero;stroke:none"
         id="path236" /><path
         d="m 6240.78,3193.25 c -64.91,0 -117.73,52.82 -117.74,117.74 v 150.14 h 9.9 v -150.14 c 0.01,-59.46 48.39,-107.83 107.84,-107.83 59.47,0 107.84,48.37 107.84,107.83 v 146.81 h 9.9 v -146.81 c 0,-64.92 -52.81,-117.74 -117.74,-117.74"
         style="fill:#3d5ab1;fill-opacity:1;fill-rule:nonzero;stroke:none"
         id="path238" /><path
         d="m 6723.03,3515.23 h -9.9 v 150.14 c 0,59.47 -48.38,107.84 -107.84,107.84 -59.47,0 -107.84,-48.37 -107.84,-107.84 v -146.82 h -9.9 v 146.82 c 0,64.93 52.81,117.74 117.74,117.74 64.92,0 117.74,-52.81 117.74,-117.74 v -150.14"
         style="fill:#f57965;fill-opacity:1;fill-rule:nonzero;stroke:none"
         id="path240" /><path
         d="m 6605.29,3193.25 c -64.93,0 -117.74,52.82 -117.74,117.74 v 150.14 h 9.9 v -150.14 c 0,-59.46 48.37,-107.83 107.84,-107.83 59.46,0 107.84,48.37 107.84,107.83 v 146.81 h 9.9 v -146.81 c 0,-64.92 -52.82,-117.74 -117.74,-117.74"
         style="fill:#f57965;fill-opacity:1;fill-rule:nonzero;stroke:none"
         id="path242" /><path
         d="m 7816.55,3515.23 h -9.91 v 150.14 c 0,59.47 -48.37,107.84 -107.83,107.84 -59.46,0 -107.83,-48.37 -107.83,-107.84 v -146.82 h -9.9 v 146.82 c 0,64.93 52.81,117.74 117.73,117.74 64.92,0 117.74,-52.81 117.74,-117.74 v -150.14"
         style="fill:#ffffff;fill-opacity:1;fill-rule:nonzero;stroke:none"
         id="path244" /><path
         d="m 7698.81,3193.25 c -64.92,0 -117.73,52.82 -117.73,117.74 v 150.14 h 9.9 v -150.14 c 0,-59.46 48.37,-107.83 107.83,-107.83 59.46,0 107.83,48.37 107.83,107.83 v 146.81 h 9.91 v -146.81 c 0,-64.92 -52.82,-117.74 -117.74,-117.74"
         style="fill:#ffffff;fill-opacity:1;fill-rule:nonzero;stroke:none"
         id="path246" /><path
         d="m 6358.52,4230.07 h -9.9 v 150.15 c 0,59.46 -48.37,107.83 -107.84,107.83 -59.46,0 -107.84,-48.37 -107.84,-107.83 v -146.83 h -9.9 v 146.83 c 0,64.92 52.82,117.73 117.74,117.73 64.93,0 117.74,-52.81 117.74,-117.73 v -150.15"
         style="fill:#ffffff;fill-opacity:1;fill-rule:nonzero;stroke:none"
         id="path248" /><path
         d="m 6240.78,3908.1 c -64.92,0 -117.73,52.81 -117.73,117.73 l -0.01,150.15 h 9.9 l 0.01,-150.15 c 0,-59.46 48.37,-107.83 107.83,-107.83 59.47,0 107.84,48.37 107.84,107.83 v 146.82 h 9.9 v -146.82 c 0,-64.92 -52.81,-117.73 -117.74,-117.73"
         style="fill:#ffffff;fill-opacity:1;fill-rule:nonzero;stroke:none"
         id="path250" /><path
         d="m 7816.55,4230.07 h -9.91 v 150.15 c 0,59.46 -48.37,107.83 -107.83,107.83 -59.46,0 -107.83,-48.37 -107.83,-107.83 v -146.83 h -9.9 v 146.83 c 0,64.92 52.81,117.73 117.73,117.73 64.92,0 117.74,-52.81 117.74,-117.73 v -150.15"
         style="fill:#ffffff;fill-opacity:1;fill-rule:nonzero;stroke:none"
         id="path252" /><path
         d="m 7698.81,3908.1 c -64.92,0 -117.73,52.81 -117.73,117.73 v 150.15 h 9.9 v -150.15 c 0,-59.46 48.37,-107.83 107.83,-107.83 59.46,0 107.83,48.37 107.83,107.83 v 146.82 h 9.91 v -146.82 c 0,-64.92 -52.82,-117.73 -117.74,-117.73"
         style="fill:#ffffff;fill-opacity:1;fill-rule:nonzero;stroke:none"
         id="path254" /><path
         d="m 7816.55,2800.38 h -9.91 v 150.15 c 0,59.46 -48.37,107.83 -107.83,107.83 -59.46,0 -107.83,-48.37 -107.83,-107.83 V 2803.7 h -9.9 v 146.83 c 0,64.92 52.81,117.73 117.73,117.73 64.92,0 117.74,-52.81 117.74,-117.73 v -150.15"
         style="fill:#ffffff;fill-opacity:1;fill-rule:nonzero;stroke:none"
         id="path256" /><path
         d="m 7698.81,2478.41 c -64.92,0 -117.73,52.81 -117.73,117.73 v 150.15 h 9.9 v -150.15 c 0,-59.46 48.37,-107.83 107.83,-107.83 59.46,0 107.83,48.37 107.83,107.83 v 146.82 h 9.91 v -146.82 c 0,-64.92 -52.82,-117.73 -117.74,-117.73"
         style="fill:#ffffff;fill-opacity:1;fill-rule:nonzero;stroke:none"
         id="path258" /><path
         d="m 7452.04,2800.38 h -9.9 v 150.15 c 0,59.46 -48.37,107.83 -107.83,107.83 -59.46,0 -107.84,-48.37 -107.84,-107.83 V 2803.7 h -9.9 v 146.83 c 0,64.92 52.81,117.73 117.73,117.73 64.92,0 117.74,-52.81 117.74,-117.73 v -150.15"
         style="fill:#f57965;fill-opacity:1;fill-rule:nonzero;stroke:none"
         id="path260" /><path
         d="m 7334.31,2478.41 c -64.92,0 -117.74,52.81 -117.74,117.73 v 150.15 h 9.9 v -150.15 c 0,-59.46 48.38,-107.83 107.84,-107.83 59.46,0 107.83,48.37 107.83,107.83 v 146.82 h 9.9 v -146.82 c 0,-64.92 -52.81,-117.73 -117.73,-117.73"
         style="fill:#f57965;fill-opacity:1;fill-rule:nonzero;stroke:none"
         id="path262" /><path
         d="m 6744.94,2800.38 h -9.9 v 150.15 c 0,59.46 -48.37,107.83 -107.83,107.83 -59.46,0 -107.83,-48.37 -107.83,-107.83 V 2803.7 h -9.9 v 146.83 c 0,64.92 52.81,117.73 117.73,117.73 64.92,0 117.73,-52.81 117.73,-117.73 v -150.15"
         style="fill:#f57965;fill-opacity:1;fill-rule:nonzero;stroke:none"
         id="path264" /><path
         d="m 6627.21,2478.41 c -64.92,0 -117.73,52.81 -117.73,117.73 v 150.15 h 9.9 v -150.15 c 0,-59.46 48.37,-107.83 107.83,-107.83 59.46,0 107.83,48.37 107.83,107.83 v 146.82 h 9.9 v -146.82 c 0,-64.92 -52.81,-117.73 -117.73,-117.73"
         style="fill:#f57965;fill-opacity:1;fill-rule:nonzero;stroke:none"
         id="path266" /><path
         d="m 526.398,2056.37 h -9.902 v 179.32 c 0,59.46 -48.379,107.83 -107.84,107.83 -59.465,0 -107.832,-48.37 -107.832,-107.83 V 2059.7 h -9.902 v 175.99 c 0,64.92 52.812,117.73 117.734,117.73 64.922,0 117.742,-52.81 117.742,-117.73 v -179.32"
         style="fill:#3d5ab1;fill-opacity:1;fill-rule:nonzero;stroke:none"
         id="path268" /><path
         d="m 408.656,1763.57 c -64.922,0 -117.734,52.81 -117.734,117.73 v 179.32 h 9.902 V 1881.3 c 0,-59.46 48.367,-107.83 107.832,-107.83 59.461,0 107.84,48.37 107.84,107.83 v 175.99 h 9.902 V 1881.3 c 0,-64.92 -52.82,-117.73 -117.742,-117.73"
         style="fill:#3d5ab1;fill-opacity:1;fill-rule:nonzero;stroke:none"
         id="path270" /><path
         d="m 1619.91,2056.37 h -9.9 v 179.32 c 0,59.46 -48.37,107.83 -107.83,107.83 -59.46,0 -107.83,-48.37 -107.83,-107.83 V 2059.7 h -9.9 v 175.99 c 0,64.92 52.81,117.73 117.73,117.73 64.92,0 117.73,-52.81 117.73,-117.73 v -179.32"
         style="fill:#ffffff;fill-opacity:1;fill-rule:nonzero;stroke:none"
         id="path272" /><path
         d="m 1502.18,1763.57 c -64.92,0 -117.73,52.81 -117.73,117.73 v 179.32 h 9.9 V 1881.3 c 0,-59.46 48.37,-107.83 107.83,-107.83 59.46,0 107.83,48.37 107.83,107.83 v 175.99 h 9.9 V 1881.3 c 0,-64.92 -52.81,-117.73 -117.73,-117.73"
         style="fill:#ffffff;fill-opacity:1;fill-rule:nonzero;stroke:none"
         id="path274" /><path
         d="m 1984.43,2056.37 h -9.91 v 179.32 c 0,59.46 -48.36,107.83 -107.83,107.83 -59.46,0 -107.84,-48.37 -107.84,-107.83 V 2059.7 h -9.9 v 175.99 c 0,64.92 52.82,117.73 117.74,117.73 64.92,0 117.74,-52.81 117.74,-117.73 v -179.32"
         style="fill:#f57965;fill-opacity:1;fill-rule:nonzero;stroke:none"
         id="path276" /><path
         d="m 1866.69,1763.57 c -64.92,0 -117.74,52.81 -117.74,117.73 v 179.32 h 9.9 V 1881.3 c 0,-59.46 48.38,-107.83 107.84,-107.83 59.47,0 107.83,48.37 107.83,107.83 v 175.99 h 9.91 V 1881.3 c 0,-64.92 -52.82,-117.73 -117.74,-117.73"
         style="fill:#f57965;fill-opacity:1;fill-rule:nonzero;stroke:none"
         id="path278" /><path
         d="m 1984.43,1341.53 h -9.91 v 179.31 c 0,59.47 -48.36,107.83 -107.83,107.83 -59.46,0 -107.84,-48.36 -107.84,-107.83 v -175.98 h -9.9 v 175.98 c 0,64.92 52.82,117.74 117.74,117.74 64.92,0 117.74,-52.82 117.74,-117.74 v -179.31"
         style="fill:#3d5ab1;fill-opacity:1;fill-rule:nonzero;stroke:none"
         id="path280" /><path
         d="m 1866.69,1048.72 c -64.92,0 -117.74,52.82 -117.74,117.74 v 179.31 h 9.9 v -179.31 c 0,-59.47 48.38,-107.83 107.84,-107.83 59.47,0 107.83,48.36 107.83,107.83 v 175.98 h 9.91 v -175.98 c 0,-64.92 -52.82,-117.74 -117.74,-117.74"
         style="fill:#3d5ab1;fill-opacity:1;fill-rule:nonzero;stroke:none"
         id="path282" /><path
         d="m 1984.43,626.68 h -9.91 V 806 c 0,59.461 -48.36,107.832 -107.83,107.832 -59.46,0 -107.84,-48.371 -107.84,-107.832 V 630.012 h -9.9 V 806 c 0,64.922 52.82,117.73 117.74,117.73 64.92,0 117.74,-52.808 117.74,-117.73 V 626.68"
         style="fill:#ffffff;fill-opacity:1;fill-rule:nonzero;stroke:none"
         id="path284" /><path
         d="m 1866.69,333.879 c -64.92,0 -117.74,52.812 -117.74,117.73 V 630.93 h 9.9 V 451.609 c 0,-59.457 48.38,-107.828 107.84,-107.828 59.47,0 107.83,48.371 107.83,107.828 v 175.993 h 9.91 V 451.609 c 0,-64.918 -52.82,-117.73 -117.74,-117.73"
         style="fill:#ffffff;fill-opacity:1;fill-rule:nonzero;stroke:none"
         id="path286" /><path
         d="m 1255.41,626.68 h -9.9 V 806 c 0,59.461 -48.37,107.832 -107.83,107.832 -59.46,0 -107.84,-48.371 -107.84,-107.832 V 630.012 h -9.91 V 806 c 0,64.922 52.83,117.73 117.75,117.73 64.92,0 117.73,-52.808 117.73,-117.73 V 626.68"
         style="fill:#ffffff;fill-opacity:1;fill-rule:nonzero;stroke:none"
         id="path288" /><path
         d="m 1137.68,333.879 c -64.92,0 -117.75,52.812 -117.75,117.73 V 630.93 h 9.91 V 451.609 c 0,-59.457 48.38,-107.828 107.84,-107.828 59.46,0 107.83,48.371 107.83,107.828 v 175.993 h 9.9 V 451.609 c 0,-64.918 -52.81,-117.73 -117.73,-117.73"
         style="fill:#ffffff;fill-opacity:1;fill-rule:nonzero;stroke:none"
         id="path290" /><path
         d="m 526.398,626.68 h -9.902 V 806 c 0,59.461 -48.379,107.832 -107.84,107.832 -59.465,0 -107.832,-48.371 -107.832,-107.832 V 630.012 h -9.902 V 806 c 0,64.922 52.812,117.73 117.734,117.73 64.922,0 117.742,-52.808 117.742,-117.73 V 626.68"
         style="fill:#ffffff;fill-opacity:1;fill-rule:nonzero;stroke:none"
         id="path292" /><path
         d="m 408.656,333.879 c -64.922,0 -117.734,52.812 -117.734,117.73 V 630.93 h 9.902 V 451.609 c 0,-59.457 48.367,-107.828 107.832,-107.828 59.461,0 107.84,48.371 107.84,107.828 v 175.993 h 9.902 V 451.609 c 0,-64.918 -52.82,-117.73 -117.742,-117.73"
         style="fill:#ffffff;fill-opacity:1;fill-rule:nonzero;stroke:none"
         id="path294" /><path
         d="m 2348.94,1341.53 h -9.9 v 179.31 c 0,59.47 -48.38,107.83 -107.85,107.83 -59.46,0 -107.83,-48.36 -107.83,-107.83 v -175.98 h -9.9 v 175.98 c 0,64.92 52.81,117.74 117.73,117.74 64.93,0 117.75,-52.82 117.75,-117.74 v -179.31"
         style="fill:#ffffff;fill-opacity:1;fill-rule:nonzero;stroke:none"
         id="path296" /><path
         d="m 2231.19,1048.72 c -64.92,0 -117.73,52.82 -117.73,117.74 v 179.31 h 9.9 v -179.31 c 0,-59.47 48.37,-107.83 107.83,-107.83 59.47,0 107.85,48.36 107.85,107.83 v 175.98 h 9.9 v -175.98 c 0,-64.92 -52.82,-117.74 -117.75,-117.74"
         style="fill:#ffffff;fill-opacity:1;fill-rule:nonzero;stroke:none"
         id="path298" /><path
         d="m 2348.94,2056.37 h -9.9 v 179.32 c 0,59.46 -48.38,107.83 -107.85,107.83 -59.46,0 -107.83,-48.37 -107.83,-107.83 V 2059.7 h -9.9 v 175.99 c 0,64.92 52.81,117.73 117.73,117.73 64.93,0 117.75,-52.81 117.75,-117.73 v -179.32"
         style="fill:#3d5ab1;fill-opacity:1;fill-rule:nonzero;stroke:none"
         id="path300" /><path
         d="m 2231.19,1763.57 c -64.92,0 -117.73,52.81 -117.73,117.73 v 179.32 h 9.9 V 1881.3 c 0,-59.46 48.37,-107.83 107.83,-107.83 59.47,0 107.85,48.37 107.85,107.83 v 175.99 h 9.9 V 1881.3 c 0,-64.92 -52.82,-117.73 -117.75,-117.73"
         style="fill:#3d5ab1;fill-opacity:1;fill-rule:nonzero;stroke:none"
         id="path302" /><path
         d="M 890.902,2085.54 H 881 v 150.15 c 0,59.46 -48.371,107.83 -107.832,107.83 -59.465,0 -107.832,-48.37 -107.832,-107.83 v -146.83 h -9.902 v 146.83 c 0,64.92 52.812,117.73 117.734,117.73 64.922,0 117.734,-52.81 117.734,-117.73 v -150.15"
         style="fill:#ffffff;fill-opacity:1;fill-rule:nonzero;stroke:none"
         id="path304" /><path
         d="m 773.168,1763.57 c -64.922,0 -117.734,52.81 -117.734,117.73 v 150.15 h 9.902 V 1881.3 c 0,-59.46 48.367,-107.83 107.832,-107.83 59.461,0 107.832,48.37 107.832,107.83 v 146.83 h 9.902 V 1881.3 c 0,-64.92 -52.812,-117.73 -117.734,-117.73"
         style="fill:#ffffff;fill-opacity:1;fill-rule:nonzero;stroke:none"
         id="path306" /><path
         d="m 526.398,1370.7 h -9.902 v 150.14 c 0,59.47 -48.379,107.83 -107.84,107.83 -59.465,0 -107.832,-48.36 -107.832,-107.83 v -146.82 h -9.902 v 146.82 c 0,64.92 52.812,117.74 117.734,117.74 64.922,0 117.742,-52.82 117.742,-117.74 V 1370.7"
         style="fill:#f57965;fill-opacity:1;fill-rule:nonzero;stroke:none"
         id="path308" /><path
         d="m 408.656,1048.72 c -64.922,0 -117.734,52.82 -117.734,117.74 v 150.14 h 9.902 v -150.14 c 0,-59.47 48.367,-107.83 107.832,-107.83 59.461,0 107.84,48.36 107.84,107.83 v 146.82 h 9.902 v -146.82 c 0,-64.92 -52.82,-117.74 -117.742,-117.74"
         style="fill:#f57965;fill-opacity:1;fill-rule:nonzero;stroke:none"
         id="path310" /><path
         d="M 890.902,1370.7 H 881 v 150.14 c 0,59.47 -48.371,107.83 -107.832,107.83 -59.465,0 -107.832,-48.36 -107.832,-107.83 v -146.82 h -9.902 v 146.82 c 0,64.92 52.812,117.74 117.734,117.74 64.922,0 117.734,-52.82 117.734,-117.74 V 1370.7"
         style="fill:#ffffff;fill-opacity:1;fill-rule:nonzero;stroke:none"
         id="path312" /><path
         d="m 773.168,1048.72 c -64.922,0 -117.734,52.82 -117.734,117.74 v 150.14 h 9.902 v -150.14 c 0,-59.47 48.367,-107.83 107.832,-107.83 59.461,0 107.832,48.36 107.832,107.83 v 146.82 h 9.902 v -146.82 c 0,-64.92 -52.812,-117.74 -117.734,-117.74"
         style="fill:#ffffff;fill-opacity:1;fill-rule:nonzero;stroke:none"
         id="path314" /><path
         d="M 890.902,657.969 H 881 v 150.152 c 0,59.461 -48.371,107.828 -107.832,107.828 -59.465,0 -107.832,-48.367 -107.832,-107.828 V 661.289 h -9.902 v 146.832 c 0,64.918 52.812,117.731 117.734,117.731 64.922,0 117.734,-52.813 117.734,-117.731 V 657.969"
         style="fill:#3d5ab1;fill-opacity:1;fill-rule:nonzero;stroke:none"
         id="path316" /><path
         d="m 773.168,336 c -64.922,0 -117.734,52.809 -117.734,117.73 v 150.149 h 9.902 V 453.73 c 0,-59.46 48.367,-107.828 107.832,-107.828 59.461,0 107.832,48.368 107.832,107.828 v 146.829 h 9.902 V 453.73 C 890.902,388.809 838.09,336 773.168,336"
         style="fill:#3d5ab1;fill-opacity:1;fill-rule:nonzero;stroke:none"
         id="path318" /><path
         d="m 1255.41,1370.7 h -9.9 v 150.14 c 0,59.47 -48.37,107.83 -107.83,107.83 -59.46,0 -107.84,-48.36 -107.84,-107.83 v -146.82 h -9.91 v 146.82 c 0,64.92 52.83,117.74 117.75,117.74 64.92,0 117.73,-52.82 117.73,-117.74 V 1370.7"
         style="fill:#3d5ab1;fill-opacity:1;fill-rule:nonzero;stroke:none"
         id="path320" /><path
         d="m 1137.68,1048.72 c -64.92,0 -117.75,52.82 -117.75,117.74 v 150.14 h 9.91 v -150.14 c 0,-59.47 48.38,-107.83 107.84,-107.83 59.46,0 107.83,48.36 107.83,107.83 v 146.82 h 9.9 v -146.82 c 0,-64.92 -52.81,-117.74 -117.73,-117.74"
         style="fill:#3d5ab1;fill-opacity:1;fill-rule:nonzero;stroke:none"
         id="path322" /><path
         d="m 1619.91,1370.7 h -9.9 v 150.14 c 0,59.47 -48.37,107.83 -107.83,107.83 -59.46,0 -107.83,-48.36 -107.83,-107.83 v -146.82 h -9.9 v 146.82 c 0,64.92 52.81,117.74 117.73,117.74 64.92,0 117.73,-52.82 117.73,-117.74 V 1370.7"
         style="fill:#f57965;fill-opacity:1;fill-rule:nonzero;stroke:none"
         id="path324" /><path
         d="m 1502.18,1048.72 c -64.92,0 -117.73,52.82 -117.73,117.74 v 150.14 h 9.9 v -150.14 c 0,-59.47 48.37,-107.83 107.83,-107.83 59.46,0 107.83,48.36 107.83,107.83 v 146.82 h 9.9 v -146.82 c 0,-64.92 -52.81,-117.74 -117.73,-117.74"
         style="fill:#f57965;fill-opacity:1;fill-rule:nonzero;stroke:none"
         id="path326" /><path
         d="m 2713.44,1370.7 h -9.9 v 150.14 c 0,59.47 -48.37,107.83 -107.83,107.83 -59.47,0 -107.84,-48.36 -107.84,-107.83 v -146.82 h -9.9 v 146.82 c 0,64.92 52.81,117.74 117.74,117.74 64.92,0 117.73,-52.82 117.73,-117.74 V 1370.7"
         style="fill:#ffffff;fill-opacity:1;fill-rule:nonzero;stroke:none"
         id="path328" /><path
         d="m 2595.71,1048.72 c -64.93,0 -117.74,52.82 -117.74,117.74 v 150.14 h 9.9 v -150.14 c 0,-59.47 48.37,-107.83 107.84,-107.83 59.46,0 107.83,48.36 107.83,107.83 v 146.82 h 9.9 v -146.82 c 0,-64.92 -52.81,-117.74 -117.73,-117.74"
         style="fill:#ffffff;fill-opacity:1;fill-rule:nonzero;stroke:none"
         id="path330" /><path
         d="m 1255.41,2085.54 h -9.9 v 150.15 c 0,59.46 -48.37,107.83 -107.83,107.83 -59.46,0 -107.84,-48.37 -107.84,-107.83 v -146.83 h -9.91 v 146.83 c 0,64.92 52.83,117.73 117.75,117.73 64.92,0 117.73,-52.81 117.73,-117.73 v -150.15"
         style="fill:#ffffff;fill-opacity:1;fill-rule:nonzero;stroke:none"
         id="path332" /><path
         d="m 1137.68,1763.57 c -64.92,0 -117.75,52.81 -117.75,117.73 v 150.15 h 9.91 V 1881.3 c 0,-59.46 48.38,-107.83 107.84,-107.83 59.46,0 107.83,48.37 107.83,107.83 v 146.83 h 9.9 V 1881.3 c 0,-64.92 -52.81,-117.73 -117.73,-117.73"
         style="fill:#ffffff;fill-opacity:1;fill-rule:nonzero;stroke:none"
         id="path334" /><path
         d="m 2713.44,2085.54 h -9.9 v 150.15 c 0,59.46 -48.37,107.83 -107.83,107.83 -59.47,0 -107.84,-48.37 -107.84,-107.83 v -146.83 h -9.9 v 146.83 c 0,64.92 52.81,117.73 117.74,117.73 64.92,0 117.73,-52.81 117.73,-117.73 v -150.15"
         style="fill:#ffffff;fill-opacity:1;fill-rule:nonzero;stroke:none"
         id="path336" /><path
         d="m 2595.71,1763.57 c -64.93,0 -117.74,52.81 -117.74,117.73 v 150.15 h 9.9 V 1881.3 c 0,-59.46 48.37,-107.83 107.84,-107.83 59.46,0 107.83,48.37 107.83,107.83 v 146.83 h 9.9 V 1881.3 c 0,-64.92 -52.81,-117.73 -117.73,-117.73"
         style="fill:#ffffff;fill-opacity:1;fill-rule:nonzero;stroke:none"
         id="path338" /><path
         d="m 2713.44,655.852 h -9.9 V 806 c 0,59.461 -48.37,107.832 -107.83,107.832 -59.47,0 -107.84,-48.371 -107.84,-107.832 V 659.172 h -9.9 V 806 c 0,64.922 52.81,117.73 117.74,117.73 64.92,0 117.73,-52.808 117.73,-117.73 V 655.852"
         style="fill:#ffffff;fill-opacity:1;fill-rule:nonzero;stroke:none"
         id="path340" /><path
         d="m 2595.71,333.879 c -64.93,0 -117.74,52.812 -117.74,117.73 v 150.153 h 9.9 V 451.609 c 0,-59.457 48.37,-107.828 107.84,-107.828 59.46,0 107.83,48.371 107.83,107.828 v 146.832 h 9.9 V 451.609 c 0,-64.918 -52.81,-117.73 -117.73,-117.73"
         style="fill:#ffffff;fill-opacity:1;fill-rule:nonzero;stroke:none"
         id="path342" /><path
         d="m 2348.94,655.852 h -9.9 V 806 c 0,59.461 -48.38,107.832 -107.85,107.832 -59.46,0 -107.83,-48.371 -107.83,-107.832 V 659.172 h -9.9 V 806 c 0,64.922 52.81,117.73 117.73,117.73 64.93,0 117.75,-52.808 117.75,-117.73 V 655.852"
         style="fill:#f57965;fill-opacity:1;fill-rule:nonzero;stroke:none"
         id="path344" /><path
         d="m 2231.19,333.879 c -64.92,0 -117.73,52.812 -117.73,117.73 v 150.153 h 9.9 V 451.609 c 0,-59.457 48.37,-107.828 107.83,-107.828 59.47,0 107.85,48.371 107.85,107.828 v 146.832 h 9.9 V 451.609 c 0,-64.918 -52.82,-117.73 -117.75,-117.73"
         style="fill:#f57965;fill-opacity:1;fill-rule:nonzero;stroke:none"
         id="path346" /><path
         d="m 1641.84,655.852 h -9.9 V 806 c 0,59.461 -48.37,107.832 -107.84,107.832 -59.46,0 -107.84,-48.371 -107.84,-107.832 V 659.172 h -9.9 V 806 c 0,64.922 52.82,117.73 117.74,117.73 64.93,0 117.74,-52.808 117.74,-117.73 V 655.852"
         style="fill:#f57965;fill-opacity:1;fill-rule:nonzero;stroke:none"
         id="path348" /><path
         d="m 1524.1,333.879 c -64.92,0 -117.73,52.812 -117.73,117.73 l -0.01,150.153 h 9.9 l 0.01,-150.153 c 0,-59.457 48.37,-107.828 107.83,-107.828 59.47,0 107.84,48.371 107.84,107.828 v 146.832 h 9.9 V 451.609 c 0,-64.918 -52.81,-117.73 -117.74,-117.73"
         style="fill:#f57965;fill-opacity:1;fill-rule:nonzero;stroke:none"
         id="path350" /><path
         d="m 3077.95,2056.37 h -9.9 v 179.32 c 0,59.46 -48.38,107.83 -107.84,107.83 -59.47,0 -107.83,-48.37 -107.83,-107.83 V 2059.7 h -9.91 v 175.99 c 0,64.92 52.82,117.73 117.74,117.73 64.92,0 117.74,-52.81 117.74,-117.73 v -179.32"
         style="fill:#3d5ab1;fill-opacity:1;fill-rule:nonzero;stroke:none"
         id="path352" /><path
         d="m 2960.21,1763.57 c -64.92,0 -117.74,52.81 -117.74,117.73 v 179.32 h 9.91 V 1881.3 c 0,-59.46 48.36,-107.83 107.83,-107.83 59.46,0 107.84,48.37 107.84,107.83 v 175.99 h 9.9 V 1881.3 c 0,-64.92 -52.82,-117.73 -117.74,-117.73"
         style="fill:#3d5ab1;fill-opacity:1;fill-rule:nonzero;stroke:none"
         id="path354" /><path
         d="m 4171.47,2056.37 h -9.9 v 179.32 c 0,59.46 -48.37,107.83 -107.84,107.83 -59.46,0 -107.83,-48.37 -107.83,-107.83 V 2059.7 h -9.9 v 175.99 c 0,64.92 52.81,117.73 117.73,117.73 64.93,0 117.74,-52.81 117.74,-117.73 v -179.32"
         style="fill:#ffffff;fill-opacity:1;fill-rule:nonzero;stroke:none"
         id="path356" /><path
         d="m 4053.73,1763.57 c -64.92,0 -117.73,52.81 -117.73,117.73 v 179.32 h 9.9 V 1881.3 c 0,-59.46 48.37,-107.83 107.83,-107.83 59.47,0 107.84,48.37 107.84,107.83 v 175.99 h 9.9 V 1881.3 c 0,-64.92 -52.81,-117.73 -117.74,-117.73"
         style="fill:#ffffff;fill-opacity:1;fill-rule:nonzero;stroke:none"
         id="path358" /><path
         d="m 4535.98,2056.37 h -9.9 v 179.32 c 0,59.46 -48.37,107.83 -107.84,107.83 -59.46,0 -107.83,-48.37 -107.83,-107.83 V 2059.7 h -9.9 v 175.99 c 0,64.92 52.81,117.73 117.73,117.73 64.93,0 117.74,-52.81 117.74,-117.73 v -179.32"
         style="fill:#f57965;fill-opacity:1;fill-rule:nonzero;stroke:none"
         id="path360" /><path
         d="m 4418.24,1763.57 c -64.92,0 -117.73,52.81 -117.73,117.73 v 179.32 h 9.9 V 1881.3 c 0,-59.46 48.37,-107.83 107.83,-107.83 59.47,0 107.84,48.37 107.84,107.83 v 175.99 h 9.9 V 1881.3 c 0,-64.92 -52.81,-117.73 -117.74,-117.73"
         style="fill:#f57965;fill-opacity:1;fill-rule:nonzero;stroke:none"
         id="path362" /><path
         d="m 4535.98,1341.53 h -9.9 v 179.31 c 0,59.47 -48.37,107.83 -107.84,107.83 -59.46,0 -107.83,-48.36 -107.83,-107.83 v -175.98 h -9.9 v 175.98 c 0,64.92 52.81,117.74 117.73,117.74 64.93,0 117.74,-52.82 117.74,-117.74 v -179.31"
         style="fill:#3d5ab1;fill-opacity:1;fill-rule:nonzero;stroke:none"
         id="path364" /><path
         d="m 4418.24,1048.72 c -64.92,0 -117.73,52.82 -117.73,117.74 v 179.31 h 9.9 v -179.31 c 0,-59.47 48.37,-107.83 107.83,-107.83 59.47,0 107.84,48.36 107.84,107.83 v 175.98 h 9.9 v -175.98 c 0,-64.92 -52.81,-117.74 -117.74,-117.74"
         style="fill:#3d5ab1;fill-opacity:1;fill-rule:nonzero;stroke:none"
         id="path366" /><path
         d="m 4535.98,626.68 h -9.9 V 806 c 0,59.461 -48.37,107.832 -107.84,107.832 -59.46,0 -107.83,-48.371 -107.83,-107.832 V 630.012 h -9.9 V 806 c 0,64.922 52.81,117.73 117.73,117.73 64.93,0 117.74,-52.808 117.74,-117.73 V 626.68"
         style="fill:#ffffff;fill-opacity:1;fill-rule:nonzero;stroke:none"
         id="path368" /><path
         d="m 4418.24,333.879 c -64.92,0 -117.73,52.812 -117.73,117.73 V 630.93 h 9.9 V 451.609 c 0,-59.457 48.37,-107.828 107.83,-107.828 59.47,0 107.84,48.371 107.84,107.828 v 175.993 h 9.9 V 451.609 c 0,-64.918 -52.81,-117.73 -117.74,-117.73"
         style="fill:#ffffff;fill-opacity:1;fill-rule:nonzero;stroke:none"
         id="path370" /><path
         d="m 3806.97,626.68 h -9.91 V 806 c 0,59.461 -48.37,107.832 -107.83,107.832 -59.46,0 -107.84,-48.371 -107.84,-107.832 V 630.012 h -9.9 V 806 c 0,64.922 52.82,117.73 117.74,117.73 64.92,0 117.74,-52.808 117.74,-117.73 V 626.68"
         style="fill:#ffffff;fill-opacity:1;fill-rule:nonzero;stroke:none"
         id="path372" /><path
         d="m 3689.23,333.879 c -64.92,0 -117.74,52.812 -117.74,117.73 V 630.93 h 9.9 V 451.609 c 0,-59.457 48.38,-107.828 107.84,-107.828 59.46,0 107.83,48.371 107.83,107.828 v 175.993 h 9.91 V 451.609 c 0,-64.918 -52.82,-117.73 -117.74,-117.73"
         style="fill:#ffffff;fill-opacity:1;fill-rule:nonzero;stroke:none"
         id="path374" /><path
         d="m 3077.95,626.68 h -9.9 V 806 c 0,59.461 -48.38,107.832 -107.84,107.832 -59.47,0 -107.83,-48.371 -107.83,-107.832 V 630.012 h -9.91 V 806 c 0,64.922 52.82,117.73 117.74,117.73 64.92,0 117.74,-52.808 117.74,-117.73 V 626.68"
         style="fill:#ffffff;fill-opacity:1;fill-rule:nonzero;stroke:none"
         id="path376" /><path
         d="m 2960.21,333.879 c -64.92,0 -117.74,52.812 -117.74,117.73 V 630.93 h 9.91 V 451.609 c 0,-59.457 48.36,-107.828 107.83,-107.828 59.46,0 107.84,48.371 107.84,107.828 v 175.993 h 9.9 V 451.609 c 0,-64.918 -52.82,-117.73 -117.74,-117.73"
         style="fill:#ffffff;fill-opacity:1;fill-rule:nonzero;stroke:none"
         id="path378" /><path
         d="m 4900.49,1341.53 h -9.9 v 179.31 c 0,59.47 -48.38,107.83 -107.84,107.83 -59.47,0 -107.84,-48.36 -107.84,-107.83 v -175.98 h -9.9 v 175.98 c 0,64.92 52.82,117.74 117.74,117.74 64.92,0 117.74,-52.82 117.74,-117.74 v -179.31"
         style="fill:#ffffff;fill-opacity:1;fill-rule:nonzero;stroke:none"
         id="path380" /><path
         d="m 4782.75,1048.72 c -64.92,0 -117.74,52.82 -117.74,117.74 v 179.31 h 9.9 v -179.31 c 0,-59.47 48.37,-107.83 107.84,-107.83 59.46,0 107.84,48.36 107.84,107.83 v 175.98 h 9.9 v -175.98 c 0,-64.92 -52.82,-117.74 -117.74,-117.74"
         style="fill:#ffffff;fill-opacity:1;fill-rule:nonzero;stroke:none"
         id="path382" /><path
         d="m 4900.49,2056.37 h -9.9 v 179.32 c 0,59.46 -48.38,107.83 -107.84,107.83 -59.47,0 -107.84,-48.37 -107.84,-107.83 V 2059.7 h -9.9 v 175.99 c 0,64.92 52.82,117.73 117.74,117.73 64.92,0 117.74,-52.81 117.74,-117.73 v -179.32"
         style="fill:#3d5ab1;fill-opacity:1;fill-rule:nonzero;stroke:none"
         id="path384" /><path
         d="m 4782.75,1763.57 c -64.92,0 -117.74,52.81 -117.74,117.73 v 179.32 h 9.9 V 1881.3 c 0,-59.46 48.37,-107.83 107.84,-107.83 59.46,0 107.84,48.37 107.84,107.83 v 175.99 h 9.9 V 1881.3 c 0,-64.92 -52.82,-117.73 -117.74,-117.73"
         style="fill:#3d5ab1;fill-opacity:1;fill-rule:nonzero;stroke:none"
         id="path386" /><path
         d="m 3442.45,2085.54 h -9.9 v 150.15 c 0,59.46 -48.37,107.83 -107.83,107.83 -59.46,0 -107.83,-48.37 -107.83,-107.83 v -146.83 h -9.9 v 146.83 c 0,64.92 52.81,117.73 117.73,117.73 64.92,0 117.73,-52.81 117.73,-117.73 v -150.15"
         style="fill:#ffffff;fill-opacity:1;fill-rule:nonzero;stroke:none"
         id="path388" /><path
         d="m 3324.72,1763.57 c -64.92,0 -117.73,52.81 -117.73,117.73 v 150.15 h 9.9 V 1881.3 c 0,-59.46 48.37,-107.83 107.83,-107.83 59.46,0 107.83,48.37 107.83,107.83 v 146.83 h 9.9 V 1881.3 c 0,-64.92 -52.81,-117.73 -117.73,-117.73"
         style="fill:#ffffff;fill-opacity:1;fill-rule:nonzero;stroke:none"
         id="path390" /><path
         d="m 3077.95,1370.7 h -9.9 v 150.14 c 0,59.47 -48.38,107.83 -107.84,107.83 -59.47,0 -107.83,-48.36 -107.83,-107.83 v -146.82 h -9.91 v 146.82 c 0,64.92 52.82,117.74 117.74,117.74 64.92,0 117.74,-52.82 117.74,-117.74 V 1370.7"
         style="fill:#f57965;fill-opacity:1;fill-rule:nonzero;stroke:none"
         id="path392" /><path
         d="m 2960.21,1048.72 c -64.92,0 -117.74,52.82 -117.74,117.74 v 150.14 h 9.91 v -150.14 c 0,-59.47 48.36,-107.83 107.83,-107.83 59.46,0 107.84,48.36 107.84,107.83 v 146.82 h 9.9 v -146.82 c 0,-64.92 -52.82,-117.74 -117.74,-117.74"
         style="fill:#f57965;fill-opacity:1;fill-rule:nonzero;stroke:none"
         id="path394" /><path
         d="m 3442.45,1370.7 h -9.9 v 150.14 c 0,59.47 -48.37,107.83 -107.83,107.83 -59.46,0 -107.83,-48.36 -107.83,-107.83 v -146.82 h -9.9 v 146.82 c 0,64.92 52.81,117.74 117.73,117.74 64.92,0 117.73,-52.82 117.73,-117.74 V 1370.7"
         style="fill:#ffffff;fill-opacity:1;fill-rule:nonzero;stroke:none"
         id="path396" /><path
         d="m 3324.72,1048.72 c -64.92,0 -117.73,52.82 -117.73,117.74 v 150.14 h 9.9 v -150.14 c 0,-59.47 48.37,-107.83 107.83,-107.83 59.46,0 107.83,48.36 107.83,107.83 v 146.82 h 9.9 v -146.82 c 0,-64.92 -52.81,-117.74 -117.73,-117.74"
         style="fill:#ffffff;fill-opacity:1;fill-rule:nonzero;stroke:none"
         id="path398" /><path
         d="m 3442.45,657.969 h -9.9 v 150.152 c 0,59.461 -48.37,107.828 -107.83,107.828 -59.46,0 -107.83,-48.367 -107.83,-107.828 V 661.289 h -9.9 v 146.832 c 0,64.918 52.81,117.731 117.73,117.731 64.92,0 117.73,-52.813 117.73,-117.731 V 657.969"
         style="fill:#3d5ab1;fill-opacity:1;fill-rule:nonzero;stroke:none"
         id="path400" /><path
         d="m 3324.72,336 c -64.92,0 -117.73,52.809 -117.73,117.73 v 150.149 h 9.9 V 453.73 c 0,-59.46 48.37,-107.828 107.83,-107.828 59.46,0 107.83,48.368 107.83,107.828 v 146.829 h 9.9 V 453.73 C 3442.45,388.809 3389.64,336 3324.72,336"
         style="fill:#3d5ab1;fill-opacity:1;fill-rule:nonzero;stroke:none"
         id="path402" /><path
         d="m 3806.97,1370.7 h -9.91 v 150.14 c 0,59.47 -48.37,107.83 -107.83,107.83 -59.46,0 -107.84,-48.36 -107.84,-107.83 v -146.82 h -9.9 v 146.82 c 0,64.92 52.82,117.74 117.74,117.74 64.92,0 117.74,-52.82 117.74,-117.74 V 1370.7"
         style="fill:#3d5ab1;fill-opacity:1;fill-rule:nonzero;stroke:none"
         id="path404" /><path
         d="m 3689.23,1048.72 c -64.92,0 -117.74,52.82 -117.74,117.74 v 150.14 h 9.9 v -150.14 c 0,-59.47 48.38,-107.83 107.84,-107.83 59.46,0 107.83,48.36 107.83,107.83 v 146.82 h 9.91 v -146.82 c 0,-64.92 -52.82,-117.74 -117.74,-117.74"
         style="fill:#3d5ab1;fill-opacity:1;fill-rule:nonzero;stroke:none"
         id="path406" /><path
         d="m 4171.47,1370.7 h -9.9 v 150.14 c 0,59.47 -48.37,107.83 -107.84,107.83 -59.46,0 -107.83,-48.36 -107.83,-107.83 v -146.82 h -9.9 v 146.82 c 0,64.92 52.81,117.74 117.73,117.74 64.93,0 117.74,-52.82 117.74,-117.74 V 1370.7"
         style="fill:#f57965;fill-opacity:1;fill-rule:nonzero;stroke:none"
         id="path408" /><path
         d="m 4053.73,1048.72 c -64.92,0 -117.73,52.82 -117.73,117.74 v 150.14 h 9.9 v -150.14 c 0,-59.47 48.37,-107.83 107.83,-107.83 59.47,0 107.84,48.36 107.84,107.83 v 146.82 h 9.9 v -146.82 c 0,-64.92 -52.81,-117.74 -117.74,-117.74"
         style="fill:#f57965;fill-opacity:1;fill-rule:nonzero;stroke:none"
         id="path410" /><path
         d="m 5264.99,1370.7 h -9.9 v 150.14 c 0,59.47 -48.37,107.83 -107.83,107.83 -59.46,0 -107.83,-48.36 -107.83,-107.83 v -146.82 h -9.91 v 146.82 c 0,64.92 52.82,117.74 117.74,117.74 64.92,0 117.73,-52.82 117.73,-117.74 V 1370.7"
         style="fill:#ffffff;fill-opacity:1;fill-rule:nonzero;stroke:none"
         id="path412" /><path
         d="m 5147.26,1048.72 c -64.92,0 -117.74,52.82 -117.74,117.74 v 150.14 h 9.91 v -150.14 c 0,-59.47 48.37,-107.83 107.83,-107.83 59.46,0 107.83,48.36 107.83,107.83 v 146.82 h 9.9 v -146.82 c 0,-64.92 -52.81,-117.74 -117.73,-117.74"
         style="fill:#ffffff;fill-opacity:1;fill-rule:nonzero;stroke:none"
         id="path414" /><path
         d="m 3806.97,2085.54 h -9.91 v 150.15 c 0,59.46 -48.37,107.83 -107.83,107.83 -59.46,0 -107.84,-48.37 -107.84,-107.83 v -146.83 h -9.9 v 146.83 c 0,64.92 52.82,117.73 117.74,117.73 64.92,0 117.74,-52.81 117.74,-117.73 v -150.15"
         style="fill:#ffffff;fill-opacity:1;fill-rule:nonzero;stroke:none"
         id="path416" /><path
         d="m 3689.23,1763.57 c -64.92,0 -117.74,52.81 -117.74,117.73 v 150.15 h 9.9 V 1881.3 c 0,-59.46 48.38,-107.83 107.84,-107.83 59.46,0 107.83,48.37 107.83,107.83 v 146.83 h 9.91 V 1881.3 c 0,-64.92 -52.82,-117.73 -117.74,-117.73"
         style="fill:#ffffff;fill-opacity:1;fill-rule:nonzero;stroke:none"
         id="path418" /><path
         d="m 5264.99,2085.54 h -9.9 v 150.15 c 0,59.46 -48.37,107.83 -107.83,107.83 -59.46,0 -107.83,-48.37 -107.83,-107.83 v -146.83 h -9.91 v 146.83 c 0,64.92 52.82,117.73 117.74,117.73 64.92,0 117.73,-52.81 117.73,-117.73 v -150.15"
         style="fill:#ffffff;fill-opacity:1;fill-rule:nonzero;stroke:none"
         id="path420" /><path
         d="m 5147.26,1763.57 c -64.92,0 -117.74,52.81 -117.74,117.73 v 150.15 h 9.91 V 1881.3 c 0,-59.46 48.37,-107.83 107.83,-107.83 59.46,0 107.83,48.37 107.83,107.83 v 146.83 h 9.9 V 1881.3 c 0,-64.92 -52.81,-117.73 -117.73,-117.73"
         style="fill:#ffffff;fill-opacity:1;fill-rule:nonzero;stroke:none"
         id="path422" /><path
         d="m 5264.99,655.852 h -9.9 V 806 c 0,59.461 -48.37,107.832 -107.83,107.832 -59.46,0 -107.83,-48.371 -107.83,-107.832 V 659.172 h -9.91 V 806 c 0,64.922 52.82,117.73 117.74,117.73 64.92,0 117.73,-52.808 117.73,-117.73 V 655.852"
         style="fill:#ffffff;fill-opacity:1;fill-rule:nonzero;stroke:none"
         id="path424" /><path
         d="m 5147.26,333.879 c -64.92,0 -117.74,52.812 -117.74,117.73 v 150.153 h 9.91 V 451.609 c 0,-59.457 48.37,-107.828 107.83,-107.828 59.46,0 107.83,48.371 107.83,107.828 v 146.832 h 9.9 V 451.609 c 0,-64.918 -52.81,-117.73 -117.73,-117.73"
         style="fill:#ffffff;fill-opacity:1;fill-rule:nonzero;stroke:none"
         id="path426" /><path
         d="m 4900.49,655.852 h -9.9 V 806 c 0,59.461 -48.38,107.832 -107.84,107.832 -59.47,0 -107.84,-48.371 -107.84,-107.832 V 659.172 h -9.9 V 806 c 0,64.922 52.82,117.73 117.74,117.73 64.92,0 117.74,-52.808 117.74,-117.73 V 655.852"
         style="fill:#f57965;fill-opacity:1;fill-rule:nonzero;stroke:none"
         id="path428" /><path
         d="m 4782.75,333.879 c -64.92,0 -117.74,52.812 -117.74,117.73 v 150.153 h 9.9 V 451.609 c 0,-59.457 48.37,-107.828 107.84,-107.828 59.46,0 107.84,48.371 107.84,107.828 v 146.832 h 9.9 V 451.609 c 0,-64.918 -52.82,-117.73 -117.74,-117.73"
         style="fill:#f57965;fill-opacity:1;fill-rule:nonzero;stroke:none"
         id="path430" /><path
         d="m 4193.39,655.852 h -9.9 V 806 c 0,59.461 -48.37,107.832 -107.83,107.832 -59.47,0 -107.83,-48.371 -107.83,-107.832 V 659.172 h -9.91 V 806 c 0,64.922 52.82,117.73 117.74,117.73 64.92,0 117.73,-52.808 117.73,-117.73 V 655.852"
         style="fill:#f57965;fill-opacity:1;fill-rule:nonzero;stroke:none"
         id="path432" /><path
         d="m 4075.66,333.879 c -64.92,0 -117.74,52.812 -117.74,117.73 v 150.153 h 9.91 V 451.609 c 0,-59.457 48.36,-107.828 107.83,-107.828 59.46,0 107.83,48.371 107.83,107.828 v 146.832 h 9.9 V 451.609 c 0,-64.918 -52.81,-117.73 -117.73,-117.73"
         style="fill:#f57965;fill-opacity:1;fill-rule:nonzero;stroke:none"
         id="path434" /><path
         d="m 5629.51,2056.37 h -9.91 v 179.32 c 0,59.46 -48.37,107.83 -107.83,107.83 -59.46,0 -107.84,-48.37 -107.84,-107.83 V 2059.7 h -9.9 v 175.99 c 0,64.92 52.82,117.73 117.74,117.73 64.92,0 117.74,-52.81 117.74,-117.73 v -179.32"
         style="fill:#3d5ab1;fill-opacity:1;fill-rule:nonzero;stroke:none"
         id="path436" /><path
         d="m 5511.77,1763.57 c -64.92,0 -117.74,52.81 -117.74,117.73 v 179.32 h 9.9 V 1881.3 c 0,-59.46 48.38,-107.83 107.84,-107.83 59.46,0 107.83,48.37 107.83,107.83 v 175.99 h 9.91 V 1881.3 c 0,-64.92 -52.82,-117.73 -117.74,-117.73"
         style="fill:#3d5ab1;fill-opacity:1;fill-rule:nonzero;stroke:none"
         id="path438" /><path
         d="m 6723.03,2056.37 h -9.9 v 179.32 c 0,59.46 -48.38,107.83 -107.84,107.83 -59.47,0 -107.84,-48.37 -107.84,-107.83 V 2059.7 h -9.9 v 175.99 c 0,64.92 52.81,117.73 117.74,117.73 64.92,0 117.74,-52.81 117.74,-117.73 v -179.32"
         style="fill:#ffffff;fill-opacity:1;fill-rule:nonzero;stroke:none"
         id="path440" /><path
         d="m 6605.29,1763.57 c -64.93,0 -117.74,52.81 -117.74,117.73 v 179.32 h 9.9 V 1881.3 c 0,-59.46 48.37,-107.83 107.84,-107.83 59.46,0 107.84,48.37 107.84,107.83 v 175.99 h 9.9 V 1881.3 c 0,-64.92 -52.82,-117.73 -117.74,-117.73"
         style="fill:#ffffff;fill-opacity:1;fill-rule:nonzero;stroke:none"
         id="path442" /><path
         d="m 7087.53,2056.37 h -9.9 v 179.32 c 0,59.46 -48.37,107.83 -107.83,107.83 -59.46,0 -107.83,-48.37 -107.83,-107.83 V 2059.7 h -9.91 v 175.99 c 0,64.92 52.82,117.73 117.74,117.73 64.92,0 117.73,-52.81 117.73,-117.73 v -179.32"
         style="fill:#f57965;fill-opacity:1;fill-rule:nonzero;stroke:none"
         id="path444" /><path
         d="m 6969.8,1763.57 c -64.92,0 -117.74,52.81 -117.74,117.73 v 179.32 h 9.91 V 1881.3 c 0,-59.46 48.37,-107.83 107.83,-107.83 59.46,0 107.83,48.37 107.83,107.83 v 175.99 h 9.9 V 1881.3 c 0,-64.92 -52.81,-117.73 -117.73,-117.73"
         style="fill:#f57965;fill-opacity:1;fill-rule:nonzero;stroke:none"
         id="path446" /><path
         d="m 7087.53,1341.53 h -9.9 v 179.31 c 0,59.47 -48.37,107.83 -107.83,107.83 -59.46,0 -107.83,-48.36 -107.83,-107.83 v -175.98 h -9.91 v 175.98 c 0,64.92 52.82,117.74 117.74,117.74 64.92,0 117.73,-52.82 117.73,-117.74 v -179.31"
         style="fill:#3d5ab1;fill-opacity:1;fill-rule:nonzero;stroke:none"
         id="path448" /><path
         d="m 6969.8,1048.72 c -64.92,0 -117.74,52.82 -117.74,117.74 v 179.31 h 9.91 v -179.31 c 0,-59.47 48.37,-107.83 107.83,-107.83 59.46,0 107.83,48.36 107.83,107.83 v 175.98 h 9.9 v -175.98 c 0,-64.92 -52.81,-117.74 -117.73,-117.74"
         style="fill:#3d5ab1;fill-opacity:1;fill-rule:nonzero;stroke:none"
         id="path450" /><path
         d="m 7087.53,626.68 h -9.9 V 806 c 0,59.461 -48.37,107.832 -107.83,107.832 -59.46,0 -107.83,-48.371 -107.83,-107.832 V 630.012 h -9.91 V 806 c 0,64.922 52.82,117.73 117.74,117.73 64.92,0 117.73,-52.808 117.73,-117.73 V 626.68"
         style="fill:#ffffff;fill-opacity:1;fill-rule:nonzero;stroke:none"
         id="path452" /><path
         d="m 6969.8,333.879 c -64.92,0 -117.74,52.812 -117.74,117.73 V 630.93 h 9.91 V 451.609 c 0,-59.457 48.37,-107.828 107.83,-107.828 59.46,0 107.83,48.371 107.83,107.828 v 175.993 h 9.9 V 451.609 c 0,-64.918 -52.81,-117.73 -117.73,-117.73"
         style="fill:#ffffff;fill-opacity:1;fill-rule:nonzero;stroke:none"
         id="path454" /><path
         d="m 6358.52,626.68 h -9.9 V 806 c 0,59.461 -48.37,107.832 -107.84,107.832 -59.46,0 -107.84,-48.371 -107.84,-107.832 V 630.012 h -9.9 V 806 c 0,64.922 52.82,117.73 117.74,117.73 64.93,0 117.74,-52.808 117.74,-117.73 V 626.68"
         style="fill:#ffffff;fill-opacity:1;fill-rule:nonzero;stroke:none"
         id="path456" /><path
         d="m 6240.78,333.879 c -64.92,0 -117.73,52.812 -117.73,117.73 l -0.01,179.321 h 9.9 l 0.01,-179.321 c 0,-59.457 48.37,-107.828 107.83,-107.828 59.47,0 107.84,48.371 107.84,107.828 v 175.993 h 9.9 V 451.609 c 0,-64.918 -52.81,-117.73 -117.74,-117.73"
         style="fill:#ffffff;fill-opacity:1;fill-rule:nonzero;stroke:none"
         id="path458" /><path
         d="m 5629.51,626.68 h -9.91 V 806 c 0,59.461 -48.37,107.832 -107.83,107.832 -59.46,0 -107.84,-48.371 -107.84,-107.832 V 630.012 h -9.9 V 806 c 0,64.922 52.82,117.73 117.74,117.73 64.92,0 117.74,-52.808 117.74,-117.73 V 626.68"
         style="fill:#ffffff;fill-opacity:1;fill-rule:nonzero;stroke:none"
         id="path460" /><path
         d="m 5511.77,333.879 c -64.92,0 -117.74,52.812 -117.74,117.73 V 630.93 h 9.9 V 451.609 c 0,-59.457 48.38,-107.828 107.84,-107.828 59.46,0 107.83,48.371 107.83,107.828 v 175.993 h 9.91 V 451.609 c 0,-64.918 -52.82,-117.73 -117.74,-117.73"
         style="fill:#ffffff;fill-opacity:1;fill-rule:nonzero;stroke:none"
         id="path462" /><path
         d="m 7452.04,1341.53 h -9.9 v 179.31 c 0,59.47 -48.37,107.83 -107.83,107.83 -59.46,0 -107.84,-48.36 -107.84,-107.83 v -175.98 h -9.9 v 175.98 c 0,64.92 52.81,117.74 117.73,117.74 64.92,0 117.74,-52.82 117.74,-117.74 v -179.31"
         style="fill:#ffffff;fill-opacity:1;fill-rule:nonzero;stroke:none"
         id="path464" /><path
         d="m 7334.31,1048.72 c -64.92,0 -117.74,52.82 -117.74,117.74 v 179.31 h 9.9 v -179.31 c 0,-59.47 48.38,-107.83 107.84,-107.83 59.46,0 107.83,48.36 107.83,107.83 v 175.98 h 9.9 v -175.98 c 0,-64.92 -52.81,-117.74 -117.73,-117.74"
         style="fill:#ffffff;fill-opacity:1;fill-rule:nonzero;stroke:none"
         id="path466" /><path
         d="m 7452.04,2056.37 h -9.9 v 179.32 c 0,59.46 -48.37,107.83 -107.83,107.83 -59.46,0 -107.84,-48.37 -107.84,-107.83 V 2059.7 h -9.9 v 175.99 c 0,64.92 52.81,117.73 117.73,117.73 64.92,0 117.74,-52.81 117.74,-117.73 v -179.32"
         style="fill:#3d5ab1;fill-opacity:1;fill-rule:nonzero;stroke:none"
         id="path468" /><path
         d="m 7334.31,1763.57 c -64.92,0 -117.74,52.81 -117.74,117.73 v 179.32 h 9.9 V 1881.3 c 0,-59.46 48.38,-107.83 107.84,-107.83 59.46,0 107.83,48.37 107.83,107.83 v 175.99 h 9.9 V 1881.3 c 0,-64.92 -52.81,-117.73 -117.73,-117.73"
         style="fill:#3d5ab1;fill-opacity:1;fill-rule:nonzero;stroke:none"
         id="path470" /><path
         d="m 5994.01,2085.54 h -9.91 v 150.15 c 0,59.46 -48.36,107.83 -107.83,107.83 -59.46,0 -107.83,-48.37 -107.83,-107.83 v -146.83 h -9.9 v 146.83 c 0,64.92 52.81,117.73 117.73,117.73 64.92,0 117.74,-52.81 117.74,-117.73 v -150.15"
         style="fill:#ffffff;fill-opacity:1;fill-rule:nonzero;stroke:none"
         id="path472" /><path
         d="m 5876.27,1763.57 c -64.92,0 -117.73,52.81 -117.73,117.73 v 150.15 h 9.9 V 1881.3 c 0,-59.46 48.37,-107.83 107.83,-107.83 59.47,0 107.83,48.37 107.83,107.83 v 146.83 h 9.91 V 1881.3 c 0,-64.92 -52.82,-117.73 -117.74,-117.73"
         style="fill:#ffffff;fill-opacity:1;fill-rule:nonzero;stroke:none"
         id="path474" /><path
         d="m 5629.51,1370.7 h -9.91 v 150.14 c 0,59.47 -48.37,107.83 -107.83,107.83 -59.46,0 -107.84,-48.36 -107.84,-107.83 v -146.82 h -9.9 v 146.82 c 0,64.92 52.82,117.74 117.74,117.74 64.92,0 117.74,-52.82 117.74,-117.74 V 1370.7"
         style="fill:#f57965;fill-opacity:1;fill-rule:nonzero;stroke:none"
         id="path476" /><path
         d="m 5511.77,1048.72 c -64.92,0 -117.74,52.82 -117.74,117.74 v 150.14 h 9.9 v -150.14 c 0,-59.47 48.38,-107.83 107.84,-107.83 59.46,0 107.83,48.36 107.83,107.83 v 146.82 h 9.91 v -146.82 c 0,-64.92 -52.82,-117.74 -117.74,-117.74"
         style="fill:#f57965;fill-opacity:1;fill-rule:nonzero;stroke:none"
         id="path478" /><path
         d="m 5994.01,1370.7 h -9.91 v 150.14 c 0,59.47 -48.36,107.83 -107.83,107.83 -59.46,0 -107.83,-48.36 -107.83,-107.83 v -146.82 h -9.9 v 146.82 c 0,64.92 52.81,117.74 117.73,117.74 64.92,0 117.74,-52.82 117.74,-117.74 V 1370.7"
         style="fill:#ffffff;fill-opacity:1;fill-rule:nonzero;stroke:none"
         id="path480" /><path
         d="m 5876.27,1048.72 c -64.92,0 -117.73,52.82 -117.73,117.74 v 150.14 h 9.9 v -150.14 c 0,-59.47 48.37,-107.83 107.83,-107.83 59.47,0 107.83,48.36 107.83,107.83 v 146.82 h 9.91 v -146.82 c 0,-64.92 -52.82,-117.74 -117.74,-117.74"
         style="fill:#ffffff;fill-opacity:1;fill-rule:nonzero;stroke:none"
         id="path482" /><path
         d="m 5994.01,657.969 h -9.91 v 150.152 c 0,59.461 -48.36,107.828 -107.83,107.828 -59.46,0 -107.83,-48.367 -107.83,-107.828 V 661.289 h -9.9 v 146.832 c 0,64.918 52.81,117.731 117.73,117.731 64.92,0 117.74,-52.813 117.74,-117.731 V 657.969"
         style="fill:#3d5ab1;fill-opacity:1;fill-rule:nonzero;stroke:none"
         id="path484" /><path
         d="m 5876.27,336 c -64.92,0 -117.73,52.809 -117.73,117.73 v 150.149 h 9.9 V 453.73 c 0,-59.46 48.37,-107.828 107.83,-107.828 59.47,0 107.83,48.368 107.83,107.828 v 146.829 h 9.91 V 453.73 C 5994.01,388.809 5941.19,336 5876.27,336"
         style="fill:#3d5ab1;fill-opacity:1;fill-rule:nonzero;stroke:none"
         id="path486" /><path
         d="m 6358.52,1370.7 h -9.9 v 150.14 c 0,59.47 -48.37,107.83 -107.84,107.83 -59.46,0 -107.84,-48.36 -107.84,-107.83 v -146.82 h -9.9 v 146.82 c 0,64.92 52.82,117.74 117.74,117.74 64.93,0 117.74,-52.82 117.74,-117.74 V 1370.7"
         style="fill:#3d5ab1;fill-opacity:1;fill-rule:nonzero;stroke:none"
         id="path488" /><path
         d="m 6240.78,1048.72 c -64.91,0 -117.73,52.82 -117.74,117.74 v 150.14 h 9.9 v -150.14 c 0.01,-59.47 48.39,-107.83 107.84,-107.83 59.47,0 107.84,48.36 107.84,107.83 v 146.82 h 9.9 v -146.82 c 0,-64.92 -52.81,-117.74 -117.74,-117.74"
         style="fill:#3d5ab1;fill-opacity:1;fill-rule:nonzero;stroke:none"
         id="path490" /><path
         d="m 6723.03,1370.7 h -9.9 v 150.14 c 0,59.47 -48.38,107.83 -107.84,107.83 -59.47,0 -107.84,-48.36 -107.84,-107.83 v -146.82 h -9.9 v 146.82 c 0,64.92 52.81,117.74 117.74,117.74 64.92,0 117.74,-52.82 117.74,-117.74 V 1370.7"
         style="fill:#f57965;fill-opacity:1;fill-rule:nonzero;stroke:none"
         id="path492" /><path
         d="m 6605.29,1048.72 c -64.93,0 -117.74,52.82 -117.74,117.74 v 150.14 h 9.9 v -150.14 c 0,-59.47 48.37,-107.83 107.84,-107.83 59.46,0 107.84,48.36 107.84,107.83 v 146.82 h 9.9 v -146.82 c 0,-64.92 -52.82,-117.74 -117.74,-117.74"
         style="fill:#f57965;fill-opacity:1;fill-rule:nonzero;stroke:none"
         id="path494" /><path
         d="m 7816.55,1370.7 h -9.91 v 150.14 c 0,59.47 -48.37,107.83 -107.83,107.83 -59.46,0 -107.83,-48.36 -107.83,-107.83 v -146.82 h -9.9 v 146.82 c 0,64.92 52.81,117.74 117.73,117.74 64.92,0 117.74,-52.82 117.74,-117.74 V 1370.7"
         style="fill:#ffffff;fill-opacity:1;fill-rule:nonzero;stroke:none"
         id="path496" /><path
         d="m 7698.81,1048.72 c -64.92,0 -117.73,52.82 -117.73,117.74 v 150.14 h 9.9 v -150.14 c 0,-59.47 48.37,-107.83 107.83,-107.83 59.46,0 107.83,48.36 107.83,107.83 v 146.82 h 9.91 v -146.82 c 0,-64.92 -52.82,-117.74 -117.74,-117.74"
         style="fill:#ffffff;fill-opacity:1;fill-rule:nonzero;stroke:none"
         id="path498" /><path
         d="m 6358.52,2085.54 h -9.9 v 150.15 c 0,59.46 -48.37,107.83 -107.84,107.83 -59.46,0 -107.84,-48.37 -107.84,-107.83 v -146.83 h -9.9 v 146.83 c 0,64.92 52.82,117.73 117.74,117.73 64.93,0 117.74,-52.81 117.74,-117.73 v -150.15"
         style="fill:#ffffff;fill-opacity:1;fill-rule:nonzero;stroke:none"
         id="path500" /><path
         d="m 6240.78,1763.57 c -64.92,0 -117.73,52.81 -117.73,117.73 l -0.01,150.15 h 9.9 l 0.01,-150.15 c 0,-59.46 48.37,-107.83 107.83,-107.83 59.47,0 107.84,48.37 107.84,107.83 v 146.83 h 9.9 V 1881.3 c 0,-64.92 -52.81,-117.73 -117.74,-117.73"
         style="fill:#ffffff;fill-opacity:1;fill-rule:nonzero;stroke:none"
         id="path502" /><path
         d="m 7816.55,2085.54 h -9.91 v 150.15 c 0,59.46 -48.37,107.83 -107.83,107.83 -59.46,0 -107.83,-48.37 -107.83,-107.83 v -146.83 h -9.9 v 146.83 c 0,64.92 52.81,117.73 117.73,117.73 64.92,0 117.74,-52.81 117.74,-117.73 v -150.15"
         style="fill:#ffffff;fill-opacity:1;fill-rule:nonzero;stroke:none"
         id="path504" /><path
         d="m 7698.81,1763.57 c -64.92,0 -117.73,52.81 -117.73,117.73 v 150.15 h 9.9 V 1881.3 c 0,-59.46 48.37,-107.83 107.83,-107.83 59.46,0 107.83,48.37 107.83,107.83 v 146.83 h 9.91 V 1881.3 c 0,-64.92 -52.82,-117.73 -117.74,-117.73"
         style="fill:#ffffff;fill-opacity:1;fill-rule:nonzero;stroke:none"
         id="path506" /><path
         d="m 7816.55,655.852 h -9.91 V 806 c 0,59.461 -48.37,107.832 -107.83,107.832 -59.46,0 -107.83,-48.371 -107.83,-107.832 V 659.172 h -9.9 V 806 c 0,64.922 52.81,117.73 117.73,117.73 64.92,0 117.74,-52.808 117.74,-117.73 V 655.852"
         style="fill:#ffffff;fill-opacity:1;fill-rule:nonzero;stroke:none"
         id="path508" /><path
         d="m 7698.81,333.879 c -64.92,0 -117.73,52.812 -117.73,117.73 v 150.153 h 9.9 V 451.609 c 0,-59.457 48.37,-107.828 107.83,-107.828 59.46,0 107.83,48.371 107.83,107.828 v 146.832 h 9.91 V 451.609 c 0,-64.918 -52.82,-117.73 -117.74,-117.73"
         style="fill:#ffffff;fill-opacity:1;fill-rule:nonzero;stroke:none"
         id="path510" /><path
         d="m 7452.04,655.852 h -9.9 V 806 c 0,59.461 -48.37,107.832 -107.83,107.832 -59.46,0 -107.84,-48.371 -107.84,-107.832 V 659.172 h -9.9 V 806 c 0,64.922 52.81,117.73 117.73,117.73 64.92,0 117.74,-52.808 117.74,-117.73 V 655.852"
         style="fill:#f57965;fill-opacity:1;fill-rule:nonzero;stroke:none"
         id="path512" /><path
         d="m 7334.31,333.879 c -64.92,0 -117.74,52.812 -117.74,117.73 v 150.153 h 9.9 V 451.609 c 0,-59.457 48.38,-107.828 107.84,-107.828 59.46,0 107.83,48.371 107.83,107.828 v 146.832 h 9.9 V 451.609 c 0,-64.918 -52.81,-117.73 -117.73,-117.73"
         style="fill:#f57965;fill-opacity:1;fill-rule:nonzero;stroke:none"
         id="path514" /><path
         d="m 6744.94,655.852 h -9.9 V 806 c 0,59.461 -48.37,107.832 -107.83,107.832 -59.46,0 -107.83,-48.371 -107.83,-107.832 V 659.172 h -9.9 V 806 c 0,64.922 52.81,117.73 117.73,117.73 64.92,0 117.73,-52.808 117.73,-117.73 V 655.852"
         style="fill:#f57965;fill-opacity:1;fill-rule:nonzero;stroke:none"
         id="path516" /><path
         d="m 6627.21,333.879 c -64.92,0 -117.73,52.812 -117.73,117.73 v 150.153 h 9.9 V 451.609 c 0,-59.457 48.37,-107.828 107.83,-107.828 59.46,0 107.83,48.371 107.83,107.828 v 146.832 h 9.9 V 451.609 c 0,-64.918 -52.81,-117.73 -117.73,-117.73"
         style="fill:#f57965;fill-opacity:1;fill-rule:nonzero;stroke:none"
         id="path518" /><path
         d="m 8175.37,4200.9 h -9.9 v 179.32 c 0,59.46 -48.38,107.83 -107.84,107.83 -59.46,0 -107.83,-48.37 -107.83,-107.83 v -175.99 h -9.9 v 175.99 c 0,64.92 52.81,117.73 117.73,117.73 64.92,0 117.74,-52.81 117.74,-117.73 V 4200.9"
         style="fill:#f57965;fill-opacity:1;fill-rule:nonzero;stroke:none"
         id="path520" /><path
         d="m 8057.64,3908.1 c -64.92,0 -117.74,52.81 -117.74,117.73 v 179.31 h 9.9 v -179.31 c 0,-59.46 48.37,-107.83 107.83,-107.83 59.46,0 107.84,48.37 107.84,107.83 v 175.99 h 9.9 v -175.99 c 0,-64.92 -52.81,-117.73 -117.73,-117.73"
         style="fill:#f57965;fill-opacity:1;fill-rule:nonzero;stroke:none"
         id="path522" /><path
         d="m 8175.37,3486.06 h -9.9 v 179.31 c 0,59.47 -48.38,107.84 -107.84,107.84 -59.46,0 -107.83,-48.37 -107.83,-107.84 v -175.98 h -9.9 v 175.98 c 0,64.93 52.81,117.74 117.73,117.74 64.92,0 117.74,-52.81 117.74,-117.74 v -179.31"
         style="fill:#3d5ab1;fill-opacity:1;fill-rule:nonzero;stroke:none"
         id="path524" /><path
         d="m 8057.64,3193.25 c -64.92,0 -117.74,52.82 -117.74,117.74 v 179.31 h 9.9 v -179.31 c 0,-59.46 48.37,-107.83 107.83,-107.83 59.46,0 107.84,48.37 107.84,107.83 v 175.98 h 9.9 v -175.98 c 0,-64.92 -52.81,-117.74 -117.73,-117.74"
         style="fill:#3d5ab1;fill-opacity:1;fill-rule:nonzero;stroke:none"
         id="path526" /><path
         d="m 8175.37,2771.21 h -9.9 v 179.32 c 0,59.46 -48.38,107.83 -107.84,107.83 -59.46,0 -107.83,-48.37 -107.83,-107.83 v -175.99 h -9.9 v 175.99 c 0,64.92 52.81,117.73 117.73,117.73 64.92,0 117.74,-52.81 117.74,-117.73 v -179.32"
         style="fill:#ffffff;fill-opacity:1;fill-rule:nonzero;stroke:none"
         id="path528" /><path
         d="m 8057.64,2478.41 c -64.92,0 -117.74,52.81 -117.74,117.73 v 179.31 h 9.9 v -179.31 c 0,-59.46 48.37,-107.83 107.83,-107.83 59.46,0 107.84,48.37 107.84,107.83 v 175.99 h 9.9 v -175.99 c 0,-64.92 -52.81,-117.73 -117.73,-117.73"
         style="fill:#ffffff;fill-opacity:1;fill-rule:nonzero;stroke:none"
         id="path530" /><path
         d="m 8175.37,2056.37 h -9.9 v 179.32 c 0,59.46 -48.38,107.83 -107.84,107.83 -59.46,0 -107.83,-48.37 -107.83,-107.83 V 2059.7 h -9.9 v 175.99 c 0,64.92 52.81,117.73 117.73,117.73 64.92,0 117.74,-52.81 117.74,-117.73 v -179.32"
         style="fill:#f57965;fill-opacity:1;fill-rule:nonzero;stroke:none"
         id="path532" /><path
         d="m 8057.64,1763.57 c -64.92,0 -117.74,52.81 -117.74,117.73 v 179.32 h 9.9 V 1881.3 c 0,-59.46 48.37,-107.83 107.83,-107.83 59.46,0 107.84,48.37 107.84,107.83 v 175.99 h 9.9 V 1881.3 c 0,-64.92 -52.81,-117.73 -117.73,-117.73"
         style="fill:#f57965;fill-opacity:1;fill-rule:nonzero;stroke:none"
         id="path534" /><path
         d="m 8175.37,1341.53 h -9.9 v 179.31 c 0,59.47 -48.38,107.83 -107.84,107.83 -59.46,0 -107.83,-48.36 -107.83,-107.83 v -175.98 h -9.9 v 175.98 c 0,64.92 52.81,117.74 117.73,117.74 64.92,0 117.74,-52.82 117.74,-117.74 v -179.31"
         style="fill:#3d5ab1;fill-opacity:1;fill-rule:nonzero;stroke:none"
         id="path536" /><path
         d="m 8057.64,1048.72 c -64.92,0 -117.74,52.82 -117.74,117.74 v 179.31 h 9.9 v -179.31 c 0,-59.47 48.37,-107.83 107.83,-107.83 59.46,0 107.84,48.36 107.84,107.83 v 175.98 h 9.9 v -175.98 c 0,-64.92 -52.81,-117.74 -117.73,-117.74"
         style="fill:#3d5ab1;fill-opacity:1;fill-rule:nonzero;stroke:none"
         id="path538" /><path
         d="m 8175.37,626.68 h -9.9 V 806 c 0,59.461 -48.38,107.832 -107.84,107.832 -59.46,0 -107.83,-48.371 -107.83,-107.832 V 630.012 h -9.9 V 806 c 0,64.922 52.81,117.73 117.73,117.73 64.92,0 117.74,-52.808 117.74,-117.73 V 626.68"
         style="fill:#ffffff;fill-opacity:1;fill-rule:nonzero;stroke:none"
         id="path540" /><path
         d="m 8057.64,333.879 c -64.92,0 -117.74,52.812 -117.74,117.73 V 630.93 h 9.9 V 451.609 c 0,-59.457 48.37,-107.828 107.83,-107.828 59.46,0 107.84,48.371 107.84,107.828 v 175.993 h 9.9 V 451.609 c 0,-64.918 -52.81,-117.73 -117.73,-117.73"
         style="fill:#ffffff;fill-opacity:1;fill-rule:nonzero;stroke:none"
         id="path542" /></g></g></svg>
